<svg width="10" height="12" viewBox="0 0 10 12" xmlns="http://www.w3.org/2000/svg">
<path d="M6.26351 7.50669C11.2473 7.33003 11.2437 0.175156 6.26351 0H4.25575C2.73337 0 1.49509 1.2351 1.49509 2.75245V6.00535H0.742179C-0.247644 6.02236 -0.247142 7.49017 0.742179 7.50669H1.49509V8.50758H0.742179C-0.247644 8.52459 -0.247142 9.9924 0.742179 10.0089H1.49509V11.26C1.51215 12.2469 2.98434 12.2464 3.0009 11.26V10.0089H6.26351C7.25333 9.9919 7.25283 8.52409 6.26351 8.50758H3.0009V7.50669H6.26351ZM3.0009 2.75245C3.0009 2.06234 3.56408 1.50134 4.25575 1.50134H6.26351C9.24251 1.57941 9.2405 5.92828 6.26351 6.00535H3.0009V2.75245Z"/>
</svg>
