<svg width="24" height="24" viewBox="0 0 24 24" xmlns="http://www.w3.org/2000/svg"><path d="M2.484 5.998l6.999-4.724a4.48 4.48 0 015.034 0l7.191 4.885a4.515 4.515 0 011.717 2.755.5.5 0 01-.401.582h-.004a.497.497 0 01-.578-.402 3.516 3.516 0 00-1.484-2.267l-7-4.724a3.481 3.481 0 00-3.915 0l-7 4.724a3.494 3.494 0 00-1.543 2.9v9.276c0 1.93 1.57 3.5 3.5 3.5h4a.5.5 0 010 1.002H5c-2.48 0-4.5-2.02-4.5-4.5V9.729c0-1.5.741-2.893 1.984-3.731zm15.15 12.972l-.004.005a1.847 1.847 0 01-1.302.526c-.478 0-.954-.178-1.314-.53l-1.132-1.109a.5.5 0 01.7-.715l1.13 1.106v.001a.872.872 0 001.222.001l2.22-2.13a.5.5 0 11.692.722l-2.211 2.123zm5.866-1.965c0 3.582-2.916 6.5-6.5 6.5a6.508 6.508 0 01-6.5-6.5c0-3.583 2.916-6.5 6.5-6.5s6.5 2.917 6.5 6.5zm-1 0c0-3.034-2.467-5.5-5.5-5.5a5.506 5.506 0 00-5.5 5.5c0 3.033 2.467 5.5 5.5 5.5s5.5-2.467 5.5-5.5z"/></svg>