<svg width="24" height="24" viewBox="0 0 24 24" xmlns="http://www.w3.org/2000/svg"><path d="M13 1a1 1 0 011-1 10.01 10.01 0 0110 10 1 1 0 01-2 0 8.009 8.009 0 00-8-8 1 1 0 01-1-1zm1 5a4 4 0 014 4 1 1 0 102 0 6.006 6.006 0 00-6-6 1 1 0 100 2zm9.093 10.739a3.1 3.1 0 010 4.378l-.91 1.049c-8.19 7.841-28.12-12.084-20.4-20.3l1.15-1a3.081 3.081 0 014.327.04c.031.031 1.884 2.438 1.884 2.438a3.1 3.1 0 01-.007 4.282L7.979 9.082a12.78 12.78 0 006.931 6.945l1.465-1.165a3.1 3.1 0 014.281-.006s2.406 1.852 2.437 1.883zm-1.376 1.454s-2.393-1.841-2.424-1.872a1.1 1.1 0 00-1.549 0c-.027.028-2.044 1.635-2.044 1.635a1 1 0 01-.979.152A15.009 15.009 0 015.9 9.3a1 1 0 01.145-1s1.607-2.018 1.634-2.044a1.1 1.1 0 000-1.549c-.031-.03-1.872-2.425-1.872-2.425a1.1 1.1 0 00-1.51.039l-1.15 1C-2.495 10.105 14.776 26.418 20.721 20.8l.911-1.05a1.12 1.12 0 00.085-1.557z"/></svg>52 20 10C19.9984 8.4092 19.3657 6.884 18.2409 5.75912C17.116 4.63425 15.5908 4.0016 14 4.00001C13.7348 4.00001 13.4804 4.10537 13.2929 4.2929C13.1053 4.48044 13 4.73479 13 5.00001C13 5.26523 13.1053 5.51958 13.2929 5.70712C13.4804 5.89465 13.7348 6.00001 14 6.00001ZM23.093 16.739C23.6725 17.3201 23.9979 18.1073 23.9979 18.928C23.9979 19.7487 23.6725 20.5359 23.093 21.117L22.183 22.166C13.993 30.007 -5.93701 10.082 1.78299 1.86601L2.93299 0.86601C3.51475 0.302687 4.29492 -0.00894087 5.10469 -0.0014551C5.91446 0.00603066 6.68873 0.332028 7.25999 0.90601C7.29099 0.93701 9.14399 3.34401 9.14399 3.34401C9.69382 3.92164 9.99989 4.68894 9.99859 5.48641C9.99728 6.28389 9.6887 7.05018 9.13699 7.62601L7.97899 9.08201C8.61983 10.6391 9.56205 12.0543 10.7515 13.2461C11.9409 14.438 13.3542 15.383 14.91 16.027L16.375 14.862C16.9509 14.3107 17.717 14.0025 18.5143 14.0014C19.3115 14.0003 20.0785 14.3063 20.656 14.856C20.656 14.856 23.062 16.708 23.093 16.739ZM21.717 18.193C21.717 18.193 19.324 16.352 19.293 16.321C19.087 16.1167 18.8086 16.0021 18.5185 16.0021C18.2284 16.0021 17.95 16.1167 17.744 16.321C17.717 16.349 15.7 17.956 15.7 17.956C15.5641 18.0642 15.4023 18.1351 15.2306 18.1618C15.059 18.1884 14.8833 18.1699 14.721 18.108C12.7054 17.3576 10.8747 16.1827 9.35282 14.6631C7.83092 13.1434 6.65339 11.3144 5.89999 9.30001C5.83318 9.13547 5.81141 8.9561 5.83689 8.78035C5.86237 8.6046 5.9342 8.43881 6.04499 8.30001C6.04499 8.30001 7.65199 6.28201 7.67899 6.25601C7.88325 6.05 7.99786 5.77163 7.99786 5.48151C7.99786 5.19139 7.88325 4.91302 7.67899 4.70701C7.64799 4.67701 5.80699 2.28201 5.80699 2.28201C5.59789 2.09452 5.32499 1.99411 5.04423 2.00136C4.76348 2.00861 4.49613 2.12297 4.29699 2.32101L3.14699 3.32101C-2.49501 10.105 14.776 26.418 20.721 20.8L21.632 19.75C21.8455 19.5523 21.9737 19.2793 21.9896 18.9887C22.0054 18.6982 21.9077 18.4128 21.717 18.193Z"/>
</svg>