<svg width="14" height="14" viewBox="0 0 14 14" xmlns="http://www.w3.org/2000/svg">
<path d="M1.3272 13.8322C0.983938 13.8521 0.646358 13.738 0.38564 13.5139C-0.128547 12.9966 -0.128547 12.1612 0.38564 11.644L11.6446 0.38495C12.1794 -0.11548 13.0186 -0.0876614 13.5191 0.447138C13.9716 0.930755 13.998 1.67409 13.5808 2.18853L2.25547 13.5139C1.99812 13.7348 1.66595 13.8487 1.3272 13.8322Z"/>
<path d="M12.5727 13.8324C12.2248 13.8309 11.8913 13.6929 11.6443 13.4479L0.385286 2.18877C-0.0910816 1.63248 -0.0263169 0.7953 0.529969 0.318888C1.02647 -0.106296 1.75871 -0.106296 2.25516 0.318888L13.5805 11.5779C14.1152 12.0785 14.1428 12.9177 13.6423 13.4524C13.6223 13.4737 13.6018 13.4942 13.5805 13.5142C13.3032 13.7553 12.9382 13.8706 12.5727 13.8324Z"/>
</svg>