<svg width="32" height="26" viewBox="0 0 32 26" xmlns="http://www.w3.org/2000/svg"><path d="M9.884 16.512v-.028a4.851 4.851 0 00-5.172-4.838H1.988a1.063 1.063 0 00-1.07 1.07v7.591a1.062 1.062 0 001.07 1.07h2.724a4.87 4.87 0 005.172-4.865zm-2.238.027a2.774 2.774 0 01-2.934 2.906H3.058v-5.867h1.654a2.795 2.795 0 012.934 2.934v.027zm8.907-5.059a5.031 5.031 0 00-5.186 5.031v.028a4.985 4.985 0 005.157 5.005 5.033 5.033 0 005.186-5.033v-.027a4.985 4.985 0 00-5.157-5.005zm2.92 5.06a2.91 2.91 0 01-2.92 3.03 2.957 2.957 0 01-2.948-3.059v-.027a2.91 2.91 0 012.919-3.031 2.96 2.96 0 012.948 3.058v.028zm11.524 2.029a1 1 0 00-.64.236 3.121 3.121 0 01-2.113.765 2.89 2.89 0 01-2.822-3.058v-.028a2.884 2.884 0 012.822-3.031 3.2 3.2 0 011.988.696c.187.132.41.205.64.208a1.045 1.045 0 00.947-1.515 1.07 1.07 0 00-.308-.375 5.15 5.15 0 00-3.252-.987 4.945 4.945 0 00-5.075 5.032v.028a5.127 5.127 0 008.453 3.782.989.989 0 00-.64-1.753zM9.064 2.587h10.87v2.944a1.041 1.041 0 001.041 1.042h2.944v2.48h2.083V5.53a1.703 1.703 0 00-.545-1.237l-3.296-3.25a1.583 1.583 0 00-1.186-.541H8.807A1.838 1.838 0 006.98 2.348v6.704h2.084V2.587zM6.98 23.667a1.833 1.833 0 001.827 1.837H24.17a1.836 1.836 0 001.831-1.837v-.247H6.982l-.002.247z"/></svg>