<svg width="24" height="25" viewBox="0 0 24 25" xmlns="http://www.w3.org/2000/svg"><path d="M21.79 11.213l.09-.07 1.367-1.06a.541.541 0 00-.06-.896h-.002L8.915.966A3.631 3.631 0 006.112.644a3.633 3.633 0 00-2.203 1.77v.001L3.03 4.033c-.947 1.74-.314 3.958 1.398 4.933l.004.002 5.894 3.437.35.204-.128.386-1.259 3.777A3.621 3.621 0 015.85 19.25H1.581v-3.625a.542.542 0 00-1.083 0v8.333a.542.542 0 001.083 0v-3.625H5.85a4.701 4.701 0 004.466-3.218l1.122-3.364.195-.583.531.31 2.996 1.746a3.645 3.645 0 002.815.339c.329-.094.637-.23.919-.401l.248-.152.255.141 1.658.92a.77.77 0 001.048-.304l-.312-4.554zm0 0l-.004.008a2.556 2.556 0 00-.465.521l-.303.452.476.264 1.184.656a.77.77 0 01.303 1.041l-.879 1.612-.312-4.554zm-4.113 3.307a2.566 2.566 0 001.561-1.247l1.006-1.844c.244-.447.57-.83.971-1.14l.002-.002.14-.109.587-.457-.644-.37L8.383 1.91l-.004-.003a2.528 2.528 0 00-1.244-.325 2.63 2.63 0 00-.722.103h-.002A2.566 2.566 0 004.86 2.933L3.98 4.55a2.595 2.595 0 00.99 3.478l10.73 6.255.004.003c.598.34 1.304.424 1.974.234z" fill="none"/></svg>