<svg width="27" height="23" viewBox="0 0 27 23" fill="none" xmlns="http://www.w3.org/2000/svg"><path d="M20.25 4.66A4.414 4.414 0 0015.84.25H4.41a4.41 4.41 0 00-3.348 7.28l5.688 6.636v4.084c0 .354.167.687.45.9l4.5 3.375a1.13 1.13 0 001.178.107c.381-.19.622-.58.622-1.007v-7.459l5.688-6.636a4.41 4.41 0 001.062-2.87zm-2.77 1.406l-5.959 6.953a1.127 1.127 0 00-.271.732v5.625L9 17.69v-3.94a1.12 1.12 0 00-.271-.732l-5.96-6.954A2.162 2.162 0 014.41 2.5h11.431a2.162 2.162 0 011.64 3.567zM27 20.501c0 .621-.504 1.125-1.125 1.125h-9a1.125 1.125 0 010-2.25h9c.621 0 1.125.504 1.125 1.125zm0-4.5c0 .621-.504 1.125-1.125 1.125h-9a1.125 1.125 0 010-2.25h9c.621 0 1.125.504 1.125 1.125zm-6.75-5.625h5.625a1.125 1.125 0 010 2.25H20.25a1.125 1.125 0 010-2.25z" fill="#3DAE2B"/></svg>