<svg width="37" height="21" viewBox="0 0 37 21" fill="none" xmlns="http://www.w3.org/2000/svg"><path d="M7.157 6.42a.94.94 0 000-1.882H.94a.94.94 0 000 1.881h6.216zm.001 2.663H2.234a.94.94 0 100 1.881h4.924a.94.94 0 100-1.881zm-.002 4.544H3.394a.94.94 0 100 1.881h3.762a.94.94 0 100-1.88z" fill="#3DAE2B"/><path d="M35.71 1.47c-.014-.019-.036-.028-.052-.045A4.685 4.685 0 0032.297 0H14.773A4.68 4.68 0 0011.4 1.44a.63.63 0 00-.061.055.446.446 0 00-.02.043 4.67 4.67 0 00-1.255 3.165v10.641a4.675 4.675 0 001.523 3.442c.016.018.021.042.039.06.052.043.108.08.168.11a4.655 4.655 0 002.974 1.091h17.529a4.652 4.652 0 002.979-1.095.869.869 0 00.161-.106c.017-.018.023-.04.038-.058A4.677 4.677 0 0037 15.344V4.704a4.673 4.673 0 00-1.27-3.193c-.01-.016-.01-.029-.02-.041zm-3.413.411c.351.002.7.07 1.026.201l-8.109 5.994a2.806 2.806 0 01-3.346 0l-8.134-5.989a2.802 2.802 0 011.043-.206h17.52zM14.773 18.166a2.767 2.767 0 01-.953-.178l3.511-3.512a.942.942 0 00-1.34-1.324l-3.636 3.637a2.791 2.791 0 01-.41-1.442V4.703a2.78 2.78 0 01.35-1.333l8.45 6.221a4.678 4.678 0 005.58 0l8.359-6.162.077-.059c.228.408.348.867.351 1.335v10.64a2.79 2.79 0 01-.41 1.443l-3.637-3.638a.94.94 0 00-1.33 1.33l3.511 3.512a2.77 2.77 0 01-.953.178l-17.52-.004z" fill="#231F20"/></svg>