<svg width="22" height="23" viewBox="0 0 22 23" xmlns="http://www.w3.org/2000/svg"><path d="M10.834 23a4.068 4.068 0 01-4.063-4.063.813.813 0 011.625 0 2.44 2.44 0 002.438 2.438 2.44 2.44 0 002.438-2.438.813.813 0 011.624 0A4.067 4.067 0 0110.834 23z"/><path d="M19.77 19.75H1.897a1.898 1.898 0 01-1.233-3.337.744.744 0 01.087-.065 7.28 7.28 0 002.5-5.492V7.833A7.535 7.535 0 019.064.467a.813.813 0 01.375 1.582 5.915 5.915 0 00-4.564 5.784v3.023a8.91 8.91 0 01-3.145 6.793c-.016.013-.03.025-.048.037a.268.268 0 00-.057.168c0 .148.124.271.27.271h17.876c.147 0 .27-.123.27-.27a.258.258 0 00-.058-.169 8.835 8.835 0 01-2.323-3.006.812.812 0 111.468-.694c.43.905 1.03 1.7 1.791 2.366.028.02.058.04.082.061.424.361.666.886.666 1.441 0 1.046-.85 1.896-1.896 1.896z"/></svg>