<svg width="22" height="23" viewBox="0 0 22 23" xmlns="http://www.w3.org/2000/svg"><path d="M10.834 23a4.068 4.068 0 01-4.063-4.063.813.813 0 011.625 0 2.44 2.44 0 002.438 2.438 2.44 2.44 0 002.438-2.438.813.813 0 011.624 0A4.067 4.067 0 0110.834 23z"/><path d="M19.77 19.75H1.897a1.898 1.898 0 01-1.233-3.337.744.744 0 01.087-.065 7.28 7.28 0 002.5-5.492V7.833A7.535 7.535 0 019.064.467a.813.813 0 01.375 1.582 5.915 5.915 0 00-4.564 5.784v3.023a8.91 8.91 0 01-3.145 6.793c-.016.013-.03.025-.048.037a.268.268 0 00-.057.168c0 .148.124.271.27.271h17.876c.147 0 .27-.123.27-.27a.258.258 0 00-.058-.169 8.835 8.835 0 01-2.323-3.006.812.812 0 111.468-.694c.43.905 1.03 1.7 1.791 2.366.028.02.058.04.082.061.424.361.666.886.666 1.441 0 1.046-.85 1.896-1.896 1.896z"/></svg>3 1.50786 9.87457 1.94545 9.43916 2.0484C6.75133 2.68317 4.875 5.06215 4.875 7.8333V10.8558C4.875 13.4732 3.72766 15.9498 1.73013 17.6494C1.71387 17.6624 1.69978 17.6744 1.68233 17.6863C1.65317 17.7231 1.625 17.7795 1.625 17.8543C1.625 18.0015 1.74858 18.125 1.89577 18.125H19.7708C19.9182 18.125 20.0417 18.0015 20.0417 17.8543C20.0417 17.7783 20.0136 17.7231 19.9832 17.6863C19.9669 17.6744 19.9517 17.6624 19.9366 17.6494C18.966 16.8218 18.1999 15.823 17.6606 14.68C17.4678 14.2748 17.6409 13.7906 18.0472 13.5978C18.4568 13.405 18.9366 13.5805 19.1285 13.9856C19.5573 14.8913 20.1586 15.6865 20.9191 16.3517C20.9473 16.3711 20.9766 16.3917 21.0014 16.4133C21.4251 16.7742 21.6667 17.2994 21.6667 17.8543C21.6667 18.8996 20.8163 19.75 19.7708 19.75Z"/>
</svg>