<svg width="24" height="25" viewBox="0 0 24 25" xmlns="http://www.w3.org/2000/svg"><path d="M24.001 11.271a12.011 12.011 0 10-11.983 12.753h6.983a5.005 5.005 0 005-5v-7.753zm-2 7.753a3 3 0 01-3 3h-6.983a10.04 10.04 0 01-7.476-3.343 9.917 9.917 0 01-2.476-7.814 10.043 10.043 0 018.656-8.761c.431-.054.866-.081 1.3-.082a9.92 9.92 0 016.38 2.3 10.041 10.041 0 013.6 7.042v7.658z"/><path d="M8.002 9.024h4a1 1 0 000-2h-4a1 1 0 100 2zm8 2h-8a1 1 0 100 2h8a1 1 0 000-2zm0 4h-8a1 1 0 100 2h8a1 1 0 000-2z"/></svg>19.0011C20.3268 24.0227 21.5978 23.4955 22.5352 22.5581C23.4726 21.6207 23.9998 20.3497 24.0011 19.024V11.271ZM22.0011 19.024C22.0011 19.8197 21.6851 20.5827 21.1225 21.1453C20.5598 21.7079 19.7968 22.024 19.0011 22.024H12.0181C10.6071 22.0234 9.21197 21.7253 7.92383 21.1493C6.63568 20.5733 5.4834 19.7322 4.54213 18.681C3.5963 17.6303 2.88606 16.3895 2.45902 15.0418C2.03199 13.6941 1.89803 12.2707 2.06613 10.867C2.33156 8.65294 3.32632 6.59019 4.89357 5.00393C6.46082 3.41766 8.51143 2.39811 10.7221 2.106C11.1534 2.05195 11.5875 2.02457 12.0221 2.024C14.3526 2.01764 16.6109 2.8319 18.4011 4.324C19.4467 5.19295 20.3048 6.26515 20.9237 7.47563C21.5425 8.68611 21.909 10.0096 22.0011 11.366V19.024Z"/>
<path d="M8.00195 9.02399H12.002C12.2672 9.02399 12.5215 8.91863 12.7091 8.73109C12.8966 8.54356 13.002 8.2892 13.002 8.02399C13.002 7.75877 12.8966 7.50442 12.7091 7.31688C12.5215 7.12934 12.2672 7.02399 12.002 7.02399H8.00195C7.73674 7.02399 7.48238 7.12934 7.29485 7.31688C7.10731 7.50442 7.00195 7.75877 7.00195 8.02399C7.00195 8.2892 7.10731 8.54356 7.29485 8.73109C7.48238 8.91863 7.73674 9.02399 8.00195 9.02399Z"/>
<path d="M16.002 11.024H8.00195C7.73674 11.024 7.48238 11.1293 7.29485 11.3169C7.10731 11.5044 7.00195 11.7588 7.00195 12.024C7.00195 12.2892 7.10731 12.5436 7.29485 12.7311C7.48238 12.9186 7.73674 13.024 8.00195 13.024H16.002C16.2672 13.024 16.5215 12.9186 16.7091 12.7311C16.8966 12.5436 17.002 12.2892 17.002 12.024C17.002 11.7588 16.8966 11.5044 16.7091 11.3169C16.5215 11.1293 16.2672 11.024 16.002 11.024Z"/>
<path d="M16.002 15.024H8.00195C7.73674 15.024 7.48238 15.1293 7.29485 15.3169C7.10731 15.5044 7.00195 15.7588 7.00195 16.024C7.00195 16.2892 7.10731 16.5436 7.29485 16.7311C7.48238 16.9186 7.73674 17.024 8.00195 17.024H16.002C16.2672 17.024 16.5215 16.9186 16.7091 16.7311C16.8966 16.5436 17.002 16.2892 17.002 16.024C17.002 15.7588 16.8966 15.5044 16.7091 15.3169C16.5215 15.1293 16.2672 15.024 16.002 15.024Z"/>
</svg>