<svg width="24" height="25" viewBox="0 0 24 25" xmlns="http://www.w3.org/2000/svg"><path d="M24.001 11.271a12.011 12.011 0 10-11.983 12.753h6.983a5.005 5.005 0 005-5v-7.753zm-2 7.753a3 3 0 01-3 3h-6.983a10.04 10.04 0 01-7.476-3.343 9.917 9.917 0 01-2.476-7.814 10.043 10.043 0 018.656-8.761c.431-.054.866-.081 1.3-.082a9.92 9.92 0 016.38 2.3 10.041 10.041 0 013.6 7.042v7.658z"/><path d="M8.002 9.024h4a1 1 0 000-2h-4a1 1 0 100 2zm8 2h-8a1 1 0 100 2h8a1 1 0 000-2zm0 4h-8a1 1 0 100 2h8a1 1 0 000-2z"/></svg>