<svg width="23" height="15" viewBox="0 0 23 15" xmlns="http://www.w3.org/2000/svg"><path d="M22.854 6.882C22.648 6.602 17.753 0 11.5 0 5.247 0 .35 6.601.146 6.882a.759.759 0 000 .895c.205.281 5.101 6.882 11.354 6.882 6.253 0 11.148-6.6 11.354-6.882a.758.758 0 000-.895zM11.5 13.142c-4.606 0-8.595-4.38-9.776-5.813 1.18-1.433 5.16-5.813 9.776-5.813 4.605 0 8.594 4.381 9.776 5.814-1.18 1.434-5.16 5.813-9.776 5.813z"/><path d="M11.5 2.78a4.555 4.555 0 00-4.55 4.55 4.556 4.556 0 004.55 4.55 4.555 4.555 0 004.55-4.55 4.556 4.556 0 00-4.55-4.55zm0 7.583A3.036 3.036 0 018.467 7.33 3.036 3.036 0 0111.5 4.297a3.036 3.036 0 013.033 3.033 3.036 3.036 0 01-3.033 3.033z"/></svg>