<svg width="23" height="18" viewBox="0 0 23 18" xmlns="http://www.w3.org/2000/svg"><path d="M14.355 8.819l1.307-1.307c.095.356.15.728.15 1.113a4.317 4.317 0 01-4.312 4.313 4.3 4.3 0 01-1.113-.151l1.307-1.307a2.862 2.862 0 002.661-2.661zm8.554-.543c-.088-.16-1.342-2.356-3.793-4.218L18.07 5.104a14.386 14.386 0 013.366 3.522c-.852 1.297-4.194 5.749-9.936 5.749-.861 0-1.662-.11-2.415-.286L7.904 15.27c1.086.333 2.28.543 3.596.543 7.524 0 11.254-6.56 11.41-6.839a.718.718 0 000-.698zm-2.995-7.049L4.102 17.04a.717.717 0 01-1.016 0 .718.718 0 010-1.017l2.011-2.012C1.845 12.048.192 9.158.091 8.974a.719.719 0 010-.698c.155-.28 3.885-6.838 11.409-6.838 1.945 0 3.63.443 5.071 1.1L18.898.21a.718.718 0 111.016 1.016zM6.17 12.94l1.82-1.82a4.284 4.284 0 01-.801-2.495A4.317 4.317 0 0111.5 4.313c.93 0 1.79.298 2.495.8l1.471-1.47a10.583 10.583 0 00-3.966-.768c-5.742 0-9.084 4.452-9.935 5.749.54.82 2.095 2.895 4.604 4.316zm2.863-2.864l3.92-3.919A2.843 2.843 0 0011.5 5.75a2.878 2.878 0 00-2.875 2.875c0 .532.155 1.024.407 1.451z"/></svg>