<svg width="29" height="26" viewBox="0 0 29 26" xmlns="http://www.w3.org/2000/svg"><path d="M6.068 2.587h10.87v2.944a1.042 1.042 0 001.041 1.042h2.944v2.48h2.083V5.53a1.703 1.703 0 00-.545-1.237l-3.296-3.25a1.583 1.583 0 00-1.185-.54H5.81a1.838 1.838 0 00-1.826 1.845v6.704h2.084V2.587zm-2.084 21.08a1.833 1.833 0 001.826 1.837h15.365a1.836 1.836 0 001.831-1.837v-.247H3.986l-.002.247zm4.08-8.837v-.027a3.377 3.377 0 00-3.775-3.408H1.346a1.078 1.078 0 00-1.084 1.084v7.774a1.085 1.085 0 002.168 0v-1.958h1.648a3.523 3.523 0 003.986-3.464zM2.43 13.354h1.677c1.084 0 1.76.52 1.76 1.492v.028a1.526 1.526 0 01-1.717 1.493H2.43v-3.013zm11.087-1.959h-2.76a1.076 1.076 0 00-1.085 1.084v7.69a1.077 1.077 0 001.084 1.084h2.761a4.934 4.934 0 005.239-4.929v-.028a4.913 4.913 0 00-5.239-4.901zm2.973 4.957a2.81 2.81 0 01-2.973 2.944h-1.676v-5.943h1.676a2.833 2.833 0 012.973 2.971v.028zm10.799-2.985a.986.986 0 100-1.973h-5.521a1.076 1.076 0 00-1.084 1.085v7.774a1.085 1.085 0 002.168 0v-2.817h3.803a.986.986 0 100-1.971h-3.803v-2.098h4.437z"/></svg>