<svg width="36" height="36" viewBox="0 0 36 36" xmlns="http://www.w3.org/2000/svg">
<path d="M17.8984 0.400002C8.23358 0.400002 0.398438 8.23501 0.398438 17.9C0.398438 27.565 8.23358 35.4 17.8984 35.4C27.5633 35.4 35.3984 27.565 35.3984 17.9C35.3984 8.23501 27.5633 0.400002 17.8984 0.400002ZM23.9469 18.8276L15.1969 24.2964C15.0198 24.4069 14.8185 24.4625 14.6172 24.4625C14.4348 24.4625 14.2521 24.4171 14.0869 24.3252C13.7392 24.1325 13.5234 23.7666 13.5234 23.3688V12.4313C13.5234 12.0334 13.7392 11.6675 14.0869 11.4748C14.4345 11.2809 14.8597 11.2927 15.1969 11.5036L23.9469 16.9724C24.2665 17.1727 24.4609 17.523 24.4609 17.9C24.4609 18.277 24.2665 18.6274 23.9469 18.8276Z"/>
</svg>