<svg width="24" height="24" viewBox="0 0 24 24" xmlns="http://www.w3.org/2000/svg"><circle cx="12" cy="12" r="12"/><circle cx="12" cy="12" r="10" fill="#fff"/><path d="M13.264 13.507c4.983-.177 4.98-7.332 0-7.507h-2.008a2.76 2.76 0 00-2.76 2.752v3.253h-.754c-.99.017-.99 1.485 0 1.502h.753v1h-.753c-.99.018-.99 1.485 0 1.502h.753v1.251c.017.987 1.49.986 1.506 0v-1.251h3.263c.99-.017.989-1.485 0-1.501H10v-1.001h3.263zM10 8.752c0-.69.563-1.25 1.255-1.25h2.008c2.979.077 2.977 4.426 0 4.503H10V8.752z"/></svg>