<?xml version="1.0" encoding="utf-8"?><svg viewBox="0 0 24 25" xmlns="http://www.w3.org/2000/svg" xmlns:xlink="http://www.w3.org/1999/xlink"><style>:root>svg{display:none}:root>svg:target{display:block}</style><svg viewBox="0 0 7 11" id="back" xmlns="http://www.w3.org/2000/svg"><path d="M.233 5.93l4.945 4.894a.607.607 0 00.43.176.607.607 0 00.43-.176l.364-.36a.598.598 0 000-.851l-4.153-4.11 4.157-4.116a.595.595 0 000-.851l-.364-.36A.607.607 0 005.612 0a.607.607 0 00-.43.176l-4.95 4.9a.595.595 0 00-.176.426c0 .162.062.314.177.427z"/></svg><svg viewBox="0 0 24 24" id="call" xmlns="http://www.w3.org/2000/svg"><path d="M13 1a1 1 0 011-1 10.01 10.01 0 0110 10 1 1 0 01-2 0 8.009 8.009 0 00-8-8 1 1 0 01-1-1zm1 5a4 4 0 014 4 1 1 0 102 0 6.006 6.006 0 00-6-6 1 1 0 100 2zm9.093 10.739a3.1 3.1 0 010 4.378l-.91 1.049c-8.19 7.841-28.12-12.084-20.4-20.3l1.15-1a3.081 3.081 0 014.327.04c.031.031 1.884 2.438 1.884 2.438a3.1 3.1 0 01-.007 4.282L7.979 9.082a12.78 12.78 0 006.931 6.945l1.465-1.165a3.1 3.1 0 014.281-.006s2.406 1.852 2.437 1.883zm-1.376 1.454s-2.393-1.841-2.424-1.872a1.1 1.1 0 00-1.549 0c-.027.028-2.044 1.635-2.044 1.635a1 1 0 01-.979.152A15.009 15.009 0 015.9 9.3a1 1 0 01.145-1s1.607-2.018 1.634-2.044a1.1 1.1 0 000-1.549c-.031-.03-1.872-2.425-1.872-2.425a1.1 1.1 0 00-1.51.039l-1.15 1C-2.495 10.105 14.776 26.418 20.721 20.8l.911-1.05a1.12 1.12 0 00.085-1.557z"/></svg><svg viewBox="0 0 16 17" id="exit" xmlns="http://www.w3.org/2000/svg"><path d="M8 15.418c0-.597-.485-1.081-1.082-1.081H2.162V2.662h4.756a1.081 1.081 0 100-2.162H1.946A1.946 1.946 0 000 2.446v12.107c0 1.075.871 1.946 1.946 1.946h4.972c.597 0 1.081-.484 1.081-1.081z"/><path d="M10.595 11.295l1.714-1.714H5.622a1.081 1.081 0 110-2.162h6.687l-1.714-1.714a1.081 1.081 0 011.528-1.53l3.56 3.56a1.08 1.08 0 010 1.53l-3.56 3.559a1.081 1.081 0 01-1.528-1.529z"/></svg><svg viewBox="0 0 24 24" id="menu1" xmlns="http://www.w3.org/2000/svg"><path d="M2.484 5.998l6.999-4.724a4.48 4.48 0 015.034 0l7.191 4.885a4.515 4.515 0 011.717 2.755.5.5 0 01-.401.582h-.004a.497.497 0 01-.578-.402 3.516 3.516 0 00-1.484-2.267l-7-4.724a3.481 3.481 0 00-3.915 0l-7 4.724a3.494 3.494 0 00-1.543 2.9v9.276c0 1.93 1.57 3.5 3.5 3.5h4a.5.5 0 010 1.002H5c-2.48 0-4.5-2.02-4.5-4.5V9.729c0-1.5.741-2.893 1.984-3.731zm15.15 12.972l-.004.005a1.847 1.847 0 01-1.302.526c-.478 0-.954-.178-1.314-.53l-1.132-1.109a.5.5 0 01.7-.715l1.13 1.106v.001a.872.872 0 001.222.001l2.22-2.13a.5.5 0 11.692.722l-2.211 2.123zm5.866-1.965c0 3.582-2.916 6.5-6.5 6.5a6.508 6.508 0 01-6.5-6.5c0-3.583 2.916-6.5 6.5-6.5s6.5 2.917 6.5 6.5zm-1 0c0-3.034-2.467-5.5-5.5-5.5a5.506 5.506 0 00-5.5 5.5c0 3.033 2.467 5.5 5.5 5.5s5.5-2.467 5.5-5.5z"/></svg><svg viewBox="0 0 24 20" id="menu2" xmlns="http://www.w3.org/2000/svg"><path d="M21 4H5a3.012 3.012 0 01-2.235-.999A2.995 2.995 0 015 2h18a1 1 0 100-2H5a5 5 0 00-5 5v10a5 5 0 005 5h16a3 3 0 003-3V7a3 3 0 00-3-3zm1 13c0 .551-.448 1-1 1H5c-1.654 0-3-1.346-3-3V4.998A5.012 5.012 0 005 6h16c.552 0 1 .449 1 1v10zm-2-5a1 1 0 11-2 0 1 1 0 012 0z"/></svg><svg viewBox="0 0 10 12" id="menu3" xmlns="http://www.w3.org/2000/svg"><path d="M6.264 7.507c4.983-.177 4.98-7.332 0-7.507H4.256a2.76 2.76 0 00-2.76 2.752v3.253H.741c-.99.017-.99 1.485 0 1.502h.753v1H.742c-.99.018-.99 1.485 0 1.502h.753v1.251c.017.987 1.49.986 1.506 0v-1.251h3.263c.99-.017.989-1.485 0-1.501H3V7.507h3.263zM3 2.752c0-.69.563-1.25 1.255-1.25h2.008c2.979.077 2.977 4.426 0 4.503H3V2.752z"/></svg><svg viewBox="0 0 24 25" id="menu4" xmlns="http://www.w3.org/2000/svg"><path d="M24.001 11.271a12.011 12.011 0 10-11.983 12.753h6.983a5.005 5.005 0 005-5v-7.753zm-2 7.753a3 3 0 01-3 3h-6.983a10.04 10.04 0 01-7.476-3.343 9.917 9.917 0 01-2.476-7.814 10.043 10.043 0 018.656-8.761c.431-.054.866-.081 1.3-.082a9.92 9.92 0 016.38 2.3 10.041 10.041 0 013.6 7.042v7.658z"/><path d="M8.002 9.024h4a1 1 0 000-2h-4a1 1 0 100 2zM16.002 11.024h-8a1 1 0 100 2h8a1 1 0 000-2zM16.002 15.024h-8a1 1 0 100 2h8a1 1 0 000-2z"/></svg><svg viewBox="0 0 24 25" id="menu5" xmlns="http://www.w3.org/2000/svg"><path d="M21.79 11.213l.09-.07 1.367-1.06a.541.541 0 00-.06-.896h-.002L8.915.966A3.631 3.631 0 006.112.644a3.633 3.633 0 00-2.203 1.77v.001L3.03 4.033c-.947 1.74-.314 3.958 1.398 4.933l.004.002 5.894 3.437.35.204-.128.386-1.259 3.777a3.621 3.621 0 01-3.439 2.478H1.581v-3.625a.542.542 0 00-1.083 0v8.333a.542.542 0 001.083 0v-3.625H5.85a4.701 4.701 0 004.466-3.218l1.122-3.364.195-.583.531.31 2.996 1.746a3.645 3.645 0 002.815.339c.329-.094.637-.23.919-.401l.248-.152.255.141 1.658.92a.77.77 0 001.048-.304l-.312-4.554zm0 0l-.004.008a2.556 2.556 0 00-.465.521l-.303.452.476.264 1.184.656c.37.206.505.67.303 1.041l-.879 1.612-.312-4.554zm-4.113 3.307a2.566 2.566 0 001.561-1.247l1.006-1.844c.244-.447.57-.83.971-1.14l.002-.002.14-.109.587-.457-.644-.37L8.383 1.91l-.004-.003a2.528 2.528 0 00-1.244-.325 2.63 2.63 0 00-.722.103h-.002A2.566 2.566 0 004.86 2.933l-.88 1.617a2.595 2.595 0 00.99 3.478l10.73 6.255.004.003c.598.34 1.304.424 1.974.234z" fill="none"/></svg><svg viewBox="0 0 22 23" id="message" xmlns="http://www.w3.org/2000/svg"><path d="M10.834 23a4.068 4.068 0 01-4.063-4.063.813.813 0 011.625 0 2.44 2.44 0 002.438 2.438 2.44 2.44 0 002.438-2.438.813.813 0 011.624 0A4.067 4.067 0 0110.834 23z"/><path d="M19.77 19.75H1.897a1.898 1.898 0 01-1.233-3.337.744.744 0 01.087-.065 7.28 7.28 0 002.5-5.492V7.833A7.535 7.535 0 019.064.467a.813.813 0 01.375 1.582 5.915 5.915 0 00-4.564 5.784v3.023a8.91 8.91 0 01-3.145 6.793c-.016.013-.03.025-.048.037a.268.268 0 00-.057.168c0 .148.124.271.27.271h17.876c.147 0 .27-.123.27-.27a.258.258 0 00-.058-.169 8.835 8.835 0 01-2.323-3.006.812.812 0 111.468-.694c.43.905 1.03 1.7 1.791 2.366.028.02.058.04.082.061.424.361.666.886.666 1.441 0 1.046-.85 1.896-1.896 1.896z"/></svg><svg viewBox="0 0 19 19" id="profile" xmlns="http://www.w3.org/2000/svg"><path d="M12.549 14.155H18M15.275 11.429v5.452M4.68 6.078a4.361 4.361 0 118.722 0 4.361 4.361 0 01-8.722 0z"/><path d="M11.63 17.799H2.363c-.753 0-1.363-.61-1.363-1.363v-1.26c0-.978.418-1.91 1.152-2.555 1.243-1.092 3.51-2.182 6.889-2.182"/></svg></svg>