<?xml version="1.0" encoding="utf-8"?><svg viewBox="0 0 37 25" xmlns="http://www.w3.org/2000/svg" xmlns:xlink="http://www.w3.org/1999/xlink"><style>:root>svg{display:none}:root>svg:target{display:block}</style><svg viewBox="0 0 24 24" id="addr" xmlns="http://www.w3.org/2000/svg"><path d="M2.484 5.998l6.999-4.724a4.48 4.48 0 015.034 0l7.191 4.885a4.515 4.515 0 011.717 2.755.5.5 0 01-.401.582h-.004a.497.497 0 01-.578-.402 3.516 3.516 0 00-1.484-2.267l-7-4.724a3.481 3.481 0 00-3.915 0l-7 4.724a3.494 3.494 0 00-1.543 2.9v9.276c0 1.93 1.57 3.5 3.5 3.5h4a.5.5 0 010 1.002H5c-2.48 0-4.5-2.02-4.5-4.5V9.729c0-1.5.741-2.893 1.984-3.731zm15.15 12.972l-.004.005a1.847 1.847 0 01-1.302.526c-.478 0-.954-.178-1.314-.53l-1.132-1.109a.5.5 0 01.7-.715l1.13 1.106v.001a.872.872 0 001.222.001l2.22-2.13a.5.5 0 11.692.722l-2.211 2.123zm5.866-1.965c0 3.582-2.916 6.5-6.5 6.5a6.508 6.508 0 01-6.5-6.5c0-3.583 2.916-6.5 6.5-6.5s6.5 2.917 6.5 6.5zm-1 0c0-3.034-2.467-5.5-5.5-5.5a5.506 5.506 0 00-5.5 5.5c0 3.033 2.467 5.5 5.5 5.5s5.5-2.467 5.5-5.5z"/></svg><svg viewBox="0 0 24 24" id="call" xmlns="http://www.w3.org/2000/svg"><path d="M13 1a1 1 0 011-1 10.01 10.01 0 0110 10 1 1 0 01-2 0 8.009 8.009 0 00-8-8 1 1 0 01-1-1zm1 5a4 4 0 014 4 1 1 0 102 0 6.006 6.006 0 00-6-6 1 1 0 100 2zm9.093 10.739a3.1 3.1 0 010 4.378l-.91 1.049c-8.19 7.841-28.12-12.084-20.4-20.3l1.15-1a3.081 3.081 0 014.327.04c.031.031 1.884 2.438 1.884 2.438a3.1 3.1 0 01-.007 4.282L7.979 9.082a12.78 12.78 0 006.931 6.945l1.465-1.165a3.1 3.1 0 014.281-.006s2.406 1.852 2.437 1.883zm-1.376 1.454s-2.393-1.841-2.424-1.872a1.1 1.1 0 00-1.549 0c-.027.028-2.044 1.635-2.044 1.635a1 1 0 01-.979.152A15.009 15.009 0 015.9 9.3a1 1 0 01.145-1s1.607-2.018 1.634-2.044a1.1 1.1 0 000-1.549c-.031-.03-1.872-2.425-1.872-2.425a1.1 1.1 0 00-1.51.039l-1.15 1C-2.495 10.105 14.776 26.418 20.721 20.8l.911-1.05a1.12 1.12 0 00.085-1.557z"/></svg><svg viewBox="0 0 14 14" id="close" xmlns="http://www.w3.org/2000/svg"><path d="M1.327 13.832c-.343.02-.68-.094-.941-.318a1.326 1.326 0 010-1.87L11.645.384A1.326 1.326 0 0113.58 2.19L2.255 13.514c-.257.22-.589.335-.928.318z"/><path d="M12.573 13.832a1.326 1.326 0 01-.929-.384L.385 2.188a1.326 1.326 0 011.87-1.87l11.326 11.26a1.326 1.326 0 010 1.936 1.326 1.326 0 01-1.008.318z"/></svg><svg viewBox="0 0 24 25" id="equipment" xmlns="http://www.w3.org/2000/svg"><path d="M21.79 11.213l.09-.07 1.367-1.06a.541.541 0 00-.06-.896h-.002L8.915.966A3.631 3.631 0 006.112.644a3.633 3.633 0 00-2.203 1.77v.001L3.03 4.033c-.947 1.74-.314 3.958 1.398 4.933l.004.002 5.894 3.437.35.204-.128.386-1.259 3.777a3.621 3.621 0 01-3.439 2.478H1.581v-3.625a.542.542 0 00-1.083 0v8.333a.542.542 0 001.083 0v-3.625H5.85a4.701 4.701 0 004.466-3.218l1.122-3.364.195-.583.531.31 2.996 1.746a3.645 3.645 0 002.815.339c.329-.094.637-.23.919-.401l.248-.152.255.141 1.658.92a.77.77 0 001.048-.304l-.312-4.554zm0 0l-.004.008a2.556 2.556 0 00-.465.521l-.303.452.476.264 1.184.656c.37.206.505.67.303 1.041l-.879 1.612-.312-4.554zm-4.113 3.307a2.566 2.566 0 001.561-1.247l1.006-1.844c.244-.447.57-.83.971-1.14l.002-.002.14-.109.587-.457-.644-.37L8.383 1.91l-.004-.003a2.528 2.528 0 00-1.244-.325 2.63 2.63 0 00-.722.103h-.002A2.566 2.566 0 004.86 2.933l-.88 1.617a2.595 2.595 0 00.99 3.478l10.73 6.255.004.003c.598.34 1.304.424 1.974.234z" fill="none"/></svg><svg viewBox="0 0 16 17" id="exit" xmlns="http://www.w3.org/2000/svg"><path d="M8 15.418c0-.597-.485-1.081-1.082-1.081H2.162V2.662h4.756a1.081 1.081 0 100-2.162H1.946A1.946 1.946 0 000 2.446v12.107c0 1.075.871 1.946 1.946 1.946h4.972c.597 0 1.081-.484 1.081-1.081z"/><path d="M10.595 11.295l1.714-1.714H5.622a1.081 1.081 0 110-2.162h6.687l-1.714-1.714a1.081 1.081 0 011.528-1.53l3.56 3.56a1.08 1.08 0 010 1.53l-3.56 3.559a1.081 1.081 0 01-1.528-1.529z"/></svg><svg fill="none" viewBox="0 0 27 23" id="filter" xmlns="http://www.w3.org/2000/svg"><path d="M20.25 4.66A4.414 4.414 0 0015.84.25H4.41a4.41 4.41 0 00-3.348 7.28l5.688 6.636v4.084c0 .354.167.687.45.9l4.5 3.375a1.13 1.13 0 001.178.107c.381-.19.622-.58.622-1.007v-7.459l5.688-6.636a4.41 4.41 0 001.062-2.87zm-2.77 1.406l-5.959 6.953a1.127 1.127 0 00-.271.732v5.625L9 17.69V13.75a1.12 1.12 0 00-.271-.732l-5.96-6.954A2.162 2.162 0 014.41 2.5h11.431a2.162 2.162 0 011.64 3.567zM27 20.501c0 .621-.504 1.125-1.125 1.125h-9a1.125 1.125 0 010-2.25h9c.621 0 1.125.504 1.125 1.125zm0-4.5c0 .621-.504 1.125-1.125 1.125h-9a1.125 1.125 0 010-2.25h9c.621 0 1.125.504 1.125 1.125zm-6.75-5.625h5.625a1.125 1.125 0 010 2.25H20.25a1.125 1.125 0 010-2.25z" fill="#3DAE2B"/></svg><svg fill="none" viewBox="0 0 37 21" id="letter" xmlns="http://www.w3.org/2000/svg"><path d="M7.157 6.42a.94.94 0 000-1.882H.94a.94.94 0 000 1.881h6.216zM7.158 9.083H2.234a.94.94 0 100 1.881h4.924a.94.94 0 100-1.881zM7.156 13.627H3.394a.94.94 0 100 1.881h3.762a.94.94 0 100-1.88z" fill="#3DAE2B"/><path d="M35.71 1.47c-.014-.019-.036-.028-.052-.045A4.685 4.685 0 0032.297 0H14.773A4.68 4.68 0 0011.4 1.44a.63.63 0 00-.061.055.446.446 0 00-.02.043 4.67 4.67 0 00-1.255 3.165v10.641a4.675 4.675 0 001.523 3.442c.016.018.021.042.039.06.052.043.108.08.168.11a4.655 4.655 0 002.974 1.091h17.529a4.652 4.652 0 002.979-1.095.869.869 0 00.161-.106c.017-.018.023-.04.038-.058A4.677 4.677 0 0037 15.344V4.704a4.673 4.673 0 00-1.27-3.193c-.01-.016-.01-.029-.02-.041zm-3.413.411c.351.002.7.07 1.026.201l-8.109 5.994a2.806 2.806 0 01-3.346 0l-8.134-5.989a2.802 2.802 0 011.043-.206h17.52zM14.773 18.166a2.767 2.767 0 01-.953-.178l3.511-3.512a.942.942 0 00-1.34-1.324l-3.636 3.637a2.791 2.791 0 01-.41-1.442V4.703a2.78 2.78 0 01.35-1.333l8.45 6.221a4.678 4.678 0 005.58 0l8.359-6.162.077-.059c.228.408.348.867.351 1.335v10.64a2.79 2.79 0 01-.41 1.443l-3.637-3.638a.94.94 0 00-1.33 1.33l3.511 3.512a2.77 2.77 0 01-.953.178l-17.52-.004z" fill="#231F20"/></svg><svg viewBox="0 0 26 14" id="menu" xmlns="http://www.w3.org/2000/svg"><path d="M25.188 2.476H.813C.364 2.476 0 1.921 0 1.238 0 .555.364 0 .813 0h24.375c.448 0 .812.555.812 1.238 0 .683-.364 1.238-.813 1.238zM.813 5.688h24.375c.448 0 .812.554.812 1.238 0 .683-.364 1.238-.813 1.238H.814C.364 8.164 0 7.609 0 6.926c0-.684.364-1.239.813-1.239zM.813 11.375h16.25c.448 0 .812.555.812 1.238 0 .684-.364 1.238-.813 1.238H.813c-.448 0-.812-.555-.812-1.238 0-.683.364-1.238.813-1.238z"/></svg><svg viewBox="0 0 22 23" id="message" xmlns="http://www.w3.org/2000/svg"><path d="M10.834 23a4.068 4.068 0 01-4.063-4.063.813.813 0 011.625 0 2.44 2.44 0 002.438 2.438 2.44 2.44 0 002.438-2.438.813.813 0 011.624 0A4.067 4.067 0 0110.834 23z"/><path d="M19.77 19.75H1.897a1.898 1.898 0 01-1.233-3.337.744.744 0 01.087-.065 7.28 7.28 0 002.5-5.492V7.833A7.535 7.535 0 019.064.467a.813.813 0 01.375 1.582 5.915 5.915 0 00-4.564 5.784v3.023a8.91 8.91 0 01-3.145 6.793c-.016.013-.03.025-.048.037a.268.268 0 00-.057.168c0 .148.124.271.27.271h17.876c.147 0 .27-.123.27-.27a.258.258 0 00-.058-.169 8.835 8.835 0 01-2.323-3.006.812.812 0 111.468-.694c.43.905 1.03 1.7 1.791 2.366.028.02.058.04.082.061.424.361.666.886.666 1.441 0 1.046-.85 1.896-1.896 1.896z"/></svg><svg viewBox="0 0 24 25" id="mgs" xmlns="http://www.w3.org/2000/svg"><path d="M24.001 11.271a12.011 12.011 0 10-11.983 12.753h6.983a5.005 5.005 0 005-5v-7.753zm-2 7.753a3 3 0 01-3 3h-6.983a10.04 10.04 0 01-7.476-3.343 9.917 9.917 0 01-2.476-7.814 10.043 10.043 0 018.656-8.761c.431-.054.866-.081 1.3-.082a9.92 9.92 0 016.38 2.3 10.041 10.041 0 013.6 7.042v7.658z"/><path d="M8.002 9.024h4a1 1 0 000-2h-4a1 1 0 100 2zM16.002 11.024h-8a1 1 0 100 2h8a1 1 0 000-2zM16.002 15.024h-8a1 1 0 100 2h8a1 1 0 000-2z"/></svg><svg viewBox="0 0 19 19" id="profile" xmlns="http://www.w3.org/2000/svg"><path d="M12.549 14.155H18M15.275 11.429v5.452M4.68 6.078a4.361 4.361 0 118.722 0 4.361 4.361 0 01-8.722 0z"/><path d="M11.63 17.799H2.363c-.753 0-1.363-.61-1.363-1.363v-1.26c0-.978.418-1.91 1.152-2.555 1.243-1.092 3.51-2.182 6.889-2.182"/></svg><svg viewBox="0 0 24 24" id="ruble" xmlns="http://www.w3.org/2000/svg"><circle cx="12" cy="12" r="12"/><circle cx="12" cy="12" r="10" fill="#fff"/><path d="M13.264 13.507c4.983-.177 4.98-7.332 0-7.507h-2.008a2.76 2.76 0 00-2.76 2.752v3.253h-.754c-.99.017-.99 1.485 0 1.502h.753v1h-.753c-.99.018-.99 1.485 0 1.502h.753v1.251c.017.987 1.49.986 1.506 0v-1.251h3.263c.99-.017.989-1.485 0-1.501H10v-1.001h3.263zM10 8.752c0-.69.563-1.25 1.255-1.25h2.008c2.979.077 2.977 4.426 0 4.503H10V8.752z"/></svg><svg viewBox="0 0 7 11" id="str" xmlns="http://www.w3.org/2000/svg"><path d="M.233 5.93l4.945 4.894a.607.607 0 00.43.176.607.607 0 00.43-.176l.364-.36a.598.598 0 000-.851l-4.153-4.11 4.157-4.116a.595.595 0 000-.851l-.364-.36A.607.607 0 005.612 0a.607.607 0 00-.43.176l-4.95 4.9a.595.595 0 00-.176.426c0 .162.062.314.177.427z"/></svg><svg viewBox="0 0 24 20" id="wallet" xmlns="http://www.w3.org/2000/svg"><path d="M21 4H5a3.012 3.012 0 01-2.235-.999A2.995 2.995 0 015 2h18a1 1 0 100-2H5a5 5 0 00-5 5v10a5 5 0 005 5h16a3 3 0 003-3V7a3 3 0 00-3-3zm1 13c0 .551-.448 1-1 1H5c-1.654 0-3-1.346-3-3V4.998A5.012 5.012 0 005 6h16c.552 0 1 .449 1 1v10zm-2-5a1 1 0 11-2 0 1 1 0 012 0z"/></svg></svg>