<svg width="27" height="26" viewBox="0 0 27 26" xmlns="http://www.w3.org/2000/svg"><path d="M7.275 21.097a1.13 1.13 0 00.99.53 1.035 1.035 0 001.063-1.06 1.318 1.318 0 00-.321-.795l-2.625-3.224 2.484-3.041c.201-.228.315-.52.321-.823a.98.98 0 00-.977-.991 1.229 1.229 0 00-1.047.586l-2.12 2.789-2.136-2.846a1.124 1.124 0 00-.99-.53 1.034 1.034 0 00-1.06 1.06c.014.293.127.574.32.795l2.485 3.028-2.64 3.238c-.2.227-.314.519-.319.822a.979.979 0 00.977.991 1.226 1.226 0 001.046-.586l2.26-2.945 2.289 3.002zm4.87-9.405a1.064 1.064 0 00-1.075 1.074v7.704a1.067 1.067 0 001.075 1.074h5.051a.977.977 0 000-1.954h-3.975v-6.824a1.067 1.067 0 00-1.076-1.074zm11.457 4.005c-1.689-.433-2.108-.642-2.108-1.284v-.029c0-.474.433-.851 1.257-.851.73.03 1.439.257 2.051.656.164.101.353.154.545.153a.989.989 0 001.005-.99.98.98 0 00-.475-.852 5.672 5.672 0 00-3.096-.865 3.057 3.057 0 00-3.42 2.944v.029c0 1.94 1.27 2.484 3.236 2.987 1.634.418 1.97.698 1.97 1.242v.027c0 .572-.531.92-1.41.92a4.115 4.115 0 01-2.499-.878 1.038 1.038 0 00-.614-.195.992.992 0 00-.899 1.443c.07.14.173.263.299.357a6.307 6.307 0 003.67 1.172c2.108 0 3.587-1.088 3.587-3.028v-.028c0-1.703-1.118-2.415-3.1-2.93zM6.068 2.587h10.87v2.944a1.042 1.042 0 001.041 1.042h2.944v2.48h2.083V5.53a1.703 1.703 0 00-.545-1.237l-3.296-3.25a1.583 1.583 0 00-1.185-.54H5.81a1.838 1.838 0 00-1.826 1.845v6.704h2.084V2.587zm-2.084 21.08a1.833 1.833 0 001.826 1.837h15.365a1.836 1.836 0 001.831-1.837v-.247H3.986l-.002.247z"/></svg> 2.09625 21.5726 2.2794 21.47C2.46254 21.3673 2.61623 21.2194 2.72569 21.0402L4.98611 18.0952L7.27465 21.0973Z"/>
<path d="M12.1445 11.6917C12.0031 11.6905 11.8629 11.7175 11.7321 11.7711C11.6012 11.8246 11.4823 11.9037 11.3824 12.0037C11.2824 12.1037 11.2033 12.2225 11.1497 12.3534C11.0962 12.4843 11.0692 12.6245 11.0703 12.7658V20.4696C11.0692 20.611 11.0962 20.7512 11.1497 20.882C11.2033 21.0129 11.2824 21.1318 11.3824 21.2317C11.4823 21.3317 11.6012 21.4108 11.7321 21.4644C11.8629 21.5179 12.0031 21.5449 12.1445 21.5438H17.1962C17.4553 21.5438 17.7038 21.4408 17.8871 21.2576C18.0703 21.0743 18.1733 20.8258 18.1733 20.5667C18.1733 20.3075 18.0703 20.059 17.8871 19.8758C17.7038 19.6925 17.4553 19.5896 17.1962 19.5896H13.2208V12.7658C13.2217 12.6243 13.1945 12.4841 13.1407 12.3532C13.0869 12.2223 13.0076 12.1035 12.9075 12.0035C12.8073 11.9036 12.6883 11.8245 12.5573 11.771C12.4263 11.7174 12.286 11.6905 12.1445 11.6917Z"/>
<path d="M23.6018 15.6967C21.9132 15.2644 21.4941 15.0548 21.4941 14.4129V14.3844C21.4941 13.9104 21.9274 13.5329 22.7514 13.5329C23.4815 13.5636 24.1898 13.7902 24.8022 14.189C24.9661 14.29 25.1549 14.3431 25.3474 14.3425C25.4788 14.3446 25.6092 14.3205 25.7312 14.2716C25.8531 14.2227 25.9641 14.15 26.0576 14.0578C26.1512 13.9656 26.2254 13.8556 26.276 13.7344C26.3266 13.6131 26.3526 13.483 26.3524 13.3517C26.3545 13.1805 26.3117 13.0119 26.2283 12.8624C26.1449 12.713 26.0237 12.588 25.877 12.5C24.9498 11.9192 23.8745 11.6189 22.7805 11.6354C22.359 11.5847 21.9315 11.6223 21.5254 11.7459C21.1192 11.8696 20.7433 12.0765 20.4215 12.3534C20.0997 12.6304 19.8392 12.9714 19.6565 13.3546C19.4739 13.7379 19.373 14.155 19.3605 14.5794V14.6079C19.3605 16.5479 20.6301 17.0921 22.5974 17.5946C24.2311 18.0127 24.5668 18.2925 24.5668 18.8367V18.8642C24.5668 19.4358 24.0357 19.7848 23.1568 19.7848C22.2499 19.7751 21.3716 19.4661 20.6584 18.9058C20.4796 18.7772 20.2644 18.7088 20.0441 18.7106C19.9127 18.7086 19.7822 18.7327 19.6603 18.7815C19.5384 18.8304 19.4274 18.9031 19.3338 18.9953C19.2403 19.0876 19.166 19.1975 19.1154 19.3188C19.0648 19.44 19.0389 19.5701 19.0391 19.7015C19.0388 19.8586 19.0752 20.0137 19.1455 20.1543C19.2158 20.2949 19.318 20.4171 19.4439 20.5113C20.5151 21.2751 21.7984 21.6849 23.1141 21.6831C25.2218 21.6831 26.7009 20.5946 26.7009 18.6548V18.6273C26.7003 16.9244 25.5834 16.2123 23.6018 15.6967Z"/>
<path d="M6.06793 2.5873H16.9373V5.53126C16.9373 5.80753 17.0471 6.07248 17.2424 6.26783C17.4378 6.46318 17.7027 6.57293 17.979 6.57293H20.9229V9.05209H23.0063V5.53126C23.0047 5.29878 22.9555 5.06909 22.8618 4.85636C22.768 4.64362 22.6316 4.45236 22.4611 4.29438L19.1652 1.04438C19.0173 0.875068 18.835 0.739191 18.6305 0.645795C18.426 0.552399 18.204 0.503624 17.9792 0.502716H5.81043C5.32376 0.505802 4.85819 0.701808 4.51586 1.04773C4.17353 1.39366 3.98239 1.86125 3.98439 2.34793V9.05168H6.06772L6.06793 2.5873Z"/>
<path d="M3.98438 23.6667C3.98338 24.1523 4.1751 24.6185 4.51745 24.9629C4.85979 25.3073 5.3248 25.5018 5.81042 25.5038H21.175C21.6613 25.5025 22.1272 25.3083 22.4705 24.9639C22.8138 24.6195 23.0064 24.153 23.006 23.6667V23.4204H3.98521L3.98438 23.6667Z"/>
</svg>