<svg width="27" height="26" viewBox="0 0 27 26" xmlns="http://www.w3.org/2000/svg"><path d="M7.275 21.097a1.13 1.13 0 00.99.53 1.035 1.035 0 001.063-1.06 1.318 1.318 0 00-.321-.795l-2.625-3.224 2.484-3.041c.201-.228.315-.52.321-.823a.98.98 0 00-.977-.991 1.229 1.229 0 00-1.047.586l-2.12 2.789-2.136-2.846a1.124 1.124 0 00-.99-.53 1.034 1.034 0 00-1.06 1.06c.014.293.127.574.32.795l2.485 3.028-2.64 3.238c-.2.227-.314.519-.319.822a.979.979 0 00.977.991 1.226 1.226 0 001.046-.586l2.26-2.945 2.289 3.002zm4.87-9.405a1.064 1.064 0 00-1.075 1.074v7.704a1.067 1.067 0 001.075 1.074h5.051a.977.977 0 000-1.954h-3.975v-6.824a1.067 1.067 0 00-1.076-1.074zm11.457 4.005c-1.689-.433-2.108-.642-2.108-1.284v-.029c0-.474.433-.851 1.257-.851.73.03 1.439.257 2.051.656.164.101.353.154.545.153a.989.989 0 001.005-.99.98.98 0 00-.475-.852 5.672 5.672 0 00-3.096-.865 3.057 3.057 0 00-3.42 2.944v.029c0 1.94 1.27 2.484 3.236 2.987 1.634.418 1.97.698 1.97 1.242v.027c0 .572-.531.92-1.41.92a4.115 4.115 0 01-2.499-.878 1.038 1.038 0 00-.614-.195.992.992 0 00-.899 1.443c.07.14.173.263.299.357a6.307 6.307 0 003.67 1.172c2.108 0 3.587-1.088 3.587-3.028v-.028c0-1.703-1.118-2.415-3.1-2.93zM6.068 2.587h10.87v2.944a1.042 1.042 0 001.041 1.042h2.944v2.48h2.083V5.53a1.703 1.703 0 00-.545-1.237l-3.296-3.25a1.583 1.583 0 00-1.185-.54H5.81a1.838 1.838 0 00-1.826 1.845v6.704h2.084V2.587zm-2.084 21.08a1.833 1.833 0 001.826 1.837h15.365a1.836 1.836 0 001.831-1.837v-.247H3.986l-.002.247z"/></svg>