<svg width="357" height="171" viewBox="0 0 357 171" fill="none" xmlns="http://www.w3.org/2000/svg">
<path d="M152.542 137.709L162.655 143.517V75.2663H179.319V68.341H152.562L152.542 137.709ZM227.68 89.8846L220.764 92.6177V75.1887H227.68V89.8846ZM213.823 68.3169L210.65 71.548V136.043L220.764 130.203V100.065L228.249 97.1077L237.794 93.9586V71.7061L234.404 68.3172H213.823L213.823 68.3169ZM158.054 35.8166L157.876 35.4451C162.938 31.7188 163.292 28.2435 163.296 28.2077L163.711 28.1874C164.821 33.9619 158.122 35.7989 158.054 35.8166H158.054ZM216.581 40.4264C217.984 39.5365 222.34 36.0317 219.441 28.3008L219.8 28.0959C219.901 28.2194 222.252 31.1946 221.611 34.7611C221.189 37.105 219.57 39.1304 216.805 40.7802C216.555 40.9392 216.399 41.0168 216.399 41.0168L216.203 40.6453C216.332 40.5711 216.459 40.4989 216.58 40.4264H216.581ZM248.897 36.2291C248.974 36.0001 249.563 35.7451 250.282 35.7451C250.613 35.7451 250.961 35.7948 251.318 35.8955C251.645 35.9883 252.067 36.2722 252.511 36.5741C252.903 36.8401 253.39 37.1699 253.581 37.1699L253.805 37.1658L253.797 37.3872C253.786 37.7236 253.538 38.3572 252.689 38.3572C251.853 38.3572 250.602 37.7246 248.971 36.4755L248.849 36.3713L248.897 36.2288L248.897 36.2291ZM197.187 32.2764C190.232 38.1297 184.752 48.7123 184.703 48.8054L184.379 49.573C182.698 53.2419 180.606 58.3261 180.121 61.8027L184.329 65.8229H191.505C191.112 65.082 190.503 64.2444 189.671 63.9109L189.119 63.6897L189.687 63.5152C189.703 63.5117 189.79 63.4861 189.934 63.4861C190.459 63.4861 191.519 63.7902 192.726 65.8232H194.433C194.279 65.0975 193.356 62.652 187.85 60.9237L187.556 60.8296L187.751 60.5914C187.854 60.4628 198.277 47.7366 211.978 42.1797L212.16 42.5564C212.082 42.6023 204.445 46.9634 200.592 50.504C202.263 50.49 207.89 50.3842 212.941 49.6024L213.024 49.5897L213.092 49.6366C213.275 49.763 232.52 62.1977 246.798 65.7279H256.998C256.998 65.7263 256.996 65.7263 256.995 65.7263H259.389C259.303 65.0237 258.349 61.6706 250.968 60.8837C248.718 60.6446 245.578 60.1697 243.277 58.9847C238.44 55.9918 230.537 50.5394 226.281 44.5714L226.122 44.3002L226.44 44.2369L226.519 44.2255C226.911 44.2204 227.375 44.1564 227.931 44.0357C228.336 44.004 228.753 43.9863 229.168 43.9863C231.345 43.9863 234.692 44.4583 238.266 46.7118L238.344 46.7613L238.36 46.8503C238.372 46.9076 239.515 52.608 245.565 54.2378L248.524 52.4198L246.32 50.6582L247.618 49.7393L245.523 50.0244L245.425 49.9455C244.595 49.6388 243.91 48.5187 243.893 47.4189C243.881 46.735 244.119 45.4926 245.876 44.8359C247.331 44.4719 248.205 44.3636 249.738 44.2426L249.868 44.2324L249.934 44.343C250.524 45.3196 251.545 46.212 252.809 46.8601L253.143 47.0318L250.579 48.5799L255.422 47.6723L255.729 47.5842C256.459 47.3707 257.364 46.855 258.42 46.0517C259.021 45.5933 259.546 45.1276 259.985 44.6693C259.86 44.1345 259.468 42.8066 258.575 42.1613L258.207 41.8899L258.656 41.7857C258.656 41.7857 258.693 41.778 258.762 41.778C259.068 41.778 259.875 41.9358 261.004 43.3464C261.146 43.093 261.213 42.9137 261.238 42.8297C261.014 42.3612 259.539 39.4741 256.56 37.8177L256.509 37.7911L253.849 33.2476C253.342 32.8532 246.658 27.743 239.839 26.8088L242.002 28.973L241.706 29.2686C239.424 26.9872 234.408 26.1572 233.467 26.0197C233.03 27.117 233.789 28.4104 234.121 28.9743C234.166 29.0503 234.201 29.1118 234.227 29.1587L234.271 29.2426C234.489 29.6512 234.853 30.3361 235.525 31.0083L235.282 31.3444L234.507 30.9576L234.48 30.9269C232.878 29.1637 232.114 27.6122 232.209 26.3137C232.281 25.3523 232.815 24.9056 232.837 24.8866L232.88 24.8508L232.936 24.8419C233.2 24.7976 233.481 24.7761 233.771 24.7761C234.035 24.7761 234.298 24.7938 234.557 24.8258C225.606 20.9212 216.516 19.158 213.464 18.9493C211.738 18.8308 210.715 18.7633 209.79 18.7633C208.168 18.7633 206.917 18.9759 203.571 19.5474C202.749 19.6864 201.803 19.848 200.669 20.0352C200.43 20.0463 176.537 21.1667 161.021 25.1948L160.972 25.2085L156.528 24.241C156.109 24.343 152.778 25.1856 148.903 27.3245L148.867 27.3435L148.829 27.3495C148.578 27.3838 123.366 31.0298 98.6195 49.6211L98.482 49.7241C96.8399 50.9579 91.8434 54.7066 90.5063 57.9377C89.6712 59.9553 90.2785 61.8116 92.0534 62.6656C92.7142 62.984 93.5058 63.1455 94.4108 63.1455C97.3578 63.1455 100.672 61.4524 102.118 59.2067C102.248 59.0043 102.291 58.7636 102.24 58.5295C102.189 58.2928 102.05 58.093 101.848 57.9618C101.702 57.8677 101.534 57.8177 101.36 57.8177C101.052 57.8177 100.769 57.9716 100.603 58.2317C99.3453 60.1843 96.4734 61.3516 94.4235 61.3516C93.795 61.3516 93.26 61.2474 92.8361 61.0425C92.602 60.9303 91.4753 60.2774 92.2238 58.4877C92.2938 58.3182 93.0094 56.7625 96.3156 54.3094C101.897 50.1698 113.393 43.4304 136.463 34.8388L136.641 35.217L130.286 38.8757C129.86 39.2549 121.851 46.2861 112.663 48.175C112.12 48.4934 103.944 53.4645 103.149 62.7435L107.34 65.6319H113.898C113.394 64.7484 112.815 64.1693 112.171 63.9121L111.615 63.6894L112.188 63.5162C112.203 63.5127 112.288 63.487 112.429 63.487C112.933 63.487 113.944 63.7696 115.105 65.6319H116.912C116.858 64.7969 116.303 61.6399 110.989 60.2499L110.842 60.2131L110.832 60.0627C110.828 60.0056 110.504 54.3556 116.703 53.2738L116.737 53.2688L116.77 53.2738C116.785 53.2748 118.274 53.4864 120.748 53.4864C127.832 53.4864 141.608 51.8341 154.264 40.7688L154.577 41.0438C154.488 41.1736 152.64 43.8916 150.605 45.4663C152.692 45.1146 158.078 44.3512 166.468 44.164L166.519 44.1631L166.566 44.1843C169.416 45.5838 173.856 46.8629 177.076 47.6888L176.992 48.0987L174.342 47.6967L166.16 45.675L161.975 45.7678C161.651 46.4438 159.898 49.6673 154.174 54.0107C154.01 54.2704 152.89 56.0719 152.339 57.4607C153.312 58.1541 159.684 62.5563 168.634 65.6319H178.423C178.337 64.9293 177.627 62.4879 171.952 61.2224C171.593 61.2072 167.033 60.949 162.101 57.3207L161.745 57.0584L162.171 56.9475C162.29 56.9158 174.067 53.8108 180.319 48.5609L180.399 48.4934L180.501 48.5175C181.694 48.7873 182.704 48.999 183.409 49.1348C186.889 40.6006 196.071 31.2174 196.166 31.1217L196.236 31.0492L204.883 32.0027L204.857 32.4202L197.186 32.2776L197.187 32.2764ZM198.274 68.4186L191.827 82.3836L191.428 82.2959V68.3166H181.314V153.117L191.428 147.205V100.307L197.87 85.8371L198.274 85.9211V143.285L208.386 137.42V68.3163H198.274V68.4179V68.4186ZM139.901 85.5742H133.161V75.1887H139.901V85.5742ZM126.283 68.3042L123.121 71.484L123.047 120.497L133.161 126.407V92.4977H139.901V130.322L150.015 136.164L150.062 71.6522L146.765 68.3359L126.283 68.3042ZM103.61 85.8007L110.223 88.4049V105.666L103.61 101.903V85.8007ZM93.4966 103.344L120.337 118.996V85.9471L103.61 79.4383V75.2422H120.338V68.3169L93.4966 68.3334V103.344ZM257.107 85.5739H250.629V75.1884H257.107V85.5739ZM264.095 68.3318L243.617 68.3182L240.358 71.5616V118.805L250.629 112.89V92.4977H257.107V109.223L267.375 103.377V71.6342L264.095 68.3321V68.3318Z" fill="#231F20"/>
<path d="M85.724 23.0316C85.565 23.3487 85.1155 23.7855 84.5133 24.0335C83.1692 24.5895 81.5461 24.2258 80.8318 22.4946L79.6426 19.6101L81.579 18.8131L82.7682 21.6951C82.9716 22.1905 83.3891 22.3458 83.92 22.1392C84.372 21.9523 84.819 21.6289 84.9856 21.2713L83.6336 17.9651L85.5701 17.1655L88.7122 24.7821L86.7757 25.5816L85.7244 23.0316H85.724Z" fill="#231F20"/>
<path d="M92.1385 19.7536L90.7662 17.6948L90.7114 17.7138L90.9826 20.1825L92.1388 19.7536H92.1385ZM96.4207 21.9L94.3277 22.6765L93.251 21.3143L91.1898 22.0778L91.2839 23.8054L89.1912 24.5819L89.0195 15.8604L90.7963 15.2009L96.4207 21.8997V21.9Z" fill="#231F20"/>
<path d="M101.82 18.2689C101.594 19.7571 100.577 20.6384 99.5951 20.9678C98.0626 21.4819 96.218 21.1078 95.6209 19.332L94.7168 16.6406C94.1251 14.8765 95.3659 13.4532 96.9317 12.9274C97.8915 12.6052 99.1862 12.6233 100.281 13.8017L98.8897 14.9947C98.0341 14.2015 96.3656 15.0061 96.6925 15.9773L97.5966 18.6686C97.9108 19.6069 99.7646 19.2784 99.8308 18.0525L101.82 18.2686V18.2689Z" fill="#231F20"/>
<path d="M104.858 12.6052L106.676 18.6088L104.661 19.2182L102.843 13.2147L100.749 13.8502L100.176 11.9571L106.378 10.0783L106.952 11.9714L104.858 12.6052Z" fill="#231F20"/>
<path d="M111.52 17.2235L109.497 17.7671L107.359 9.81189L109.382 9.2683L110.192 12.2789L112.483 11.6641L111.675 8.65344L113.698 8.11017L115.834 16.065L113.811 16.6086L113.005 13.6081L110.714 14.2246L111.52 17.2235Z" fill="#231F20"/>
<path d="M119.854 11.5072L118.75 9.2933L118.693 9.30629L118.654 11.7898L119.854 11.5072ZM123.837 14.1704L121.663 14.6794L120.764 13.1941L118.624 13.6968L118.503 15.4207L116.328 15.9323L117.245 7.25643L119.09 6.82245L123.836 14.1701L123.837 14.1704Z" fill="#231F20"/>
<path d="M125.913 7.36894C125.298 7.49502 125.008 7.88433 125.121 8.44313C125.228 8.96771 125.619 9.31521 126.28 9.1828L127.477 8.93951L127.109 7.12661L125.913 7.36862V7.36894ZM128.352 13.2616L127.802 10.5475L127.472 10.6149L125.854 13.7665L123.312 14.2823L125.183 10.8627C124.207 10.7293 123.35 10.2491 123.037 8.69845C122.738 6.99007 123.685 5.80248 125.555 5.42298L128.77 4.77264L130.404 12.846L128.352 13.261L128.352 13.2616Z" fill="#231F20"/>
<path d="M137.211 8.92017C137.302 9.51856 138.014 9.70324 138.669 9.60124C139.325 9.50082 139.933 9.10105 139.843 8.51438L139.413 5.7315C139.316 5.09985 138.593 4.91676 137.926 5.02002C137.283 5.11918 136.689 5.5408 136.782 6.13761L137.211 8.92049V8.92017ZM134.723 6.45565C134.433 4.58161 135.969 3.4032 137.66 3.14186C139.351 2.88084 141.184 3.55082 141.472 5.41441L141.902 8.19697C142.19 10.0593 140.654 11.2497 138.964 11.5095C137.275 11.7705 135.44 11.1005 135.152 9.23821L134.723 6.45534L134.723 6.45565Z" fill="#231F20"/>
<path d="M146.575 2.0303L148.977 1.72873L147.206 6.11417L150.004 9.90281L147.603 10.2044L145.822 7.60144L144.774 10.5585L142.36 10.8617L144.146 6.49874L141.334 2.68856L143.747 2.38572L145.495 5.00419L146.575 2.0303Z" fill="#231F20"/>
<path d="M153.426 5.29403C154.677 5.18316 154.477 3.13362 153.228 3.26761L152.023 3.3845L152.221 5.41092L153.426 5.29403ZM149.762 1.65301L153.038 1.3337C155.044 1.13761 156.179 2.48834 156.321 3.93569C156.465 5.39476 155.597 6.94126 153.617 7.13323L152.401 7.25297L152.635 9.65001L150.563 9.85116L149.762 1.65301Z" fill="#231F20"/>
<path d="M160.426 5.47143L159.683 3.11145L159.625 3.11399L159.196 5.5595L160.426 5.47143ZM163.939 8.72789L161.711 8.88944L161.058 7.28054L158.865 7.43861L158.474 9.12386L156.246 9.28446L158.517 0.862029L160.408 0.724548L163.939 8.72789Z" fill="#231F20"/>
<path d="M166.524 8.61323L164.43 8.70636L164.066 0.478746L166.158 0.385614L166.296 3.49952L168.669 3.3953L168.529 0.279811L170.621 0.188263L170.985 8.41588L168.894 8.50901L168.756 5.40524L166.386 5.51073L166.524 8.61323Z" fill="#231F20"/>
<path d="M174.318 8.34711L172.224 8.37784L172.1 0.142303L174.192 0.109675L174.24 3.22833L176.615 3.19127L176.566 0.0738791L178.661 0.0431519L178.786 8.27837L176.691 8.31132L176.644 5.20406L174.271 5.24081L174.318 8.34711Z" fill="#231F20"/>
<path d="M183.789 4.81668L183.247 2.40285L183.188 2.4019L182.557 4.80274L183.789 4.81668ZM187.019 8.35443L184.786 8.33036L184.269 6.67267L182.071 6.64733L181.54 8.2933L179.307 8.26922L182.273 0.0647278L184.169 0.0850014L187.019 8.35475V8.35443Z" fill="#231F20"/>
<path d="M190.645 2.23462C190.017 2.21023 189.644 2.52226 189.622 3.09245C189.602 3.62717 189.898 4.05894 190.573 4.08301L191.794 4.12989L191.867 2.28151L190.645 2.23462H190.645ZM191.625 8.5372L191.731 5.76953L191.394 5.75812L189.078 8.43931L186.484 8.33858L189.112 5.45908C188.194 5.09764 187.475 4.43051 187.536 2.84822C187.648 1.11831 188.849 0.186035 190.756 0.258576L194.034 0.38592L193.716 8.61861L191.624 8.53751L191.625 8.5372Z" fill="#231F20"/>
<path d="M201.259 6.39673C201.209 7.00019 201.858 7.34516 202.518 7.39837C203.18 7.45318 203.865 7.20609 203.913 6.6153L204.145 3.80962C204.197 3.17195 203.536 2.82572 202.864 2.76965C202.215 2.71611 201.539 2.98854 201.49 3.592L201.259 6.39673ZM199.415 3.4203C199.57 1.53232 201.338 0.743231 203.043 0.883246C204.746 1.02326 206.374 2.10252 206.219 3.98036L205.988 6.78605C205.834 8.66263 204.065 9.46312 202.36 9.3231C200.656 9.18151 199.03 8.10352 199.184 6.22599L199.415 3.4203Z" fill="#231F20"/>
<path d="M210.55 5.72422C211.797 5.8731 212.025 3.82705 210.774 3.70002L209.571 3.56761L209.348 5.5918L210.55 5.72422H210.55ZM207.715 1.4072L210.988 1.77022C212.988 1.99038 213.822 3.54607 213.661 4.99088C213.501 6.44742 212.335 7.78136 210.359 7.56342L209.145 7.43005L208.88 9.8233L206.811 9.59427L207.716 1.40751L207.715 1.4072Z" fill="#231F20"/>
<path d="M220.1 2.92932L219.834 4.88889L216.826 4.4812L215.985 10.6821L213.91 10.4008L215.015 2.23938L220.1 2.92932Z" fill="#231F20"/>
<path d="M222.932 8.16815L222.746 5.7011L222.688 5.69096L221.715 7.97587L222.932 8.16815ZM225.614 12.1374L223.408 11.7889L223.138 10.0726L220.965 9.73017L220.201 11.2808L217.996 10.9333L222.119 3.24545L223.993 3.54069L225.614 12.1374Z" fill="#231F20"/>
<path d="M228.147 12.616L226.09 12.228L227.619 4.13434L229.676 4.52239L229.098 7.58656L231.43 8.0272L232.008 4.96271L234.065 5.35234L232.536 13.445L230.479 13.0579L231.056 10.0039L228.724 9.56483L228.147 12.616Z" fill="#231F20"/>
<path d="M238.925 11.4724C238.938 11.475 239.466 10.0083 239.466 10.0083L239.411 9.98263L238.302 11.3818L235.667 14.1213L233.75 13.6949L235.533 5.65579L237.578 6.1091L236.77 9.7536C236.757 9.75107 236.331 10.92 236.331 10.92L236.374 10.9415L237.364 9.64812L240.177 6.68563L242.04 7.09966L240.256 15.1397L238.21 14.6855L238.924 11.4724H238.925Z" fill="#231F20"/>
<path d="M247.555 14.44C247.155 16.0188 245.734 16.6425 243.715 16.1306C242.475 15.8148 241.541 14.9544 241.193 13.8216L242.734 13.1431C243.056 13.7665 243.556 14.2046 244.052 14.3307C244.864 14.5372 245.409 14.3754 245.556 13.8014C245.702 13.2258 245.406 12.7893 244.75 12.6236L243.566 12.3233L243.919 10.9358L245.058 11.226C245.655 11.3774 246.094 11.1648 246.228 10.6339C246.342 10.1822 246.082 9.79289 245.405 9.62057C244.819 9.472 244.114 9.68962 243.808 9.81443L243.011 8.50805C243.839 7.88939 244.82 7.67145 245.982 7.96573C247.752 8.4165 248.516 9.52268 248.147 10.9764C248.014 11.4959 247.538 12.1427 246.889 12.2916C247.617 12.9201 247.735 13.7301 247.555 14.4403V14.44Z" fill="#231F20"/>
<path d="M252.211 14.6763L252.323 12.2042L252.267 12.1877L251.025 14.338L252.211 14.6766V14.6763ZM254.396 18.941L252.245 18.3275L252.184 16.5922L250.07 15.9887L249.124 17.4376L246.977 16.8253L251.999 9.69119L253.823 10.2104L254.396 18.941Z" fill="#231F20"/>
<path d="M257.381 11.2475L259.374 11.8915L257.453 17.8482L259.588 18.5381L261.511 12.5815L263.505 13.2245L261.581 19.1796L262.533 19.4891L261.418 22.9429L259.535 22.3344L260.044 20.7632L254.852 19.0855L257.381 11.2475Z" fill="#231F20"/>
<path d="M268.107 20.1163C268.119 20.1204 268.834 18.7352 268.834 18.7352L268.783 18.7044L267.501 19.9443L264.531 22.3173L262.686 21.6438L265.505 13.9062L267.472 14.6228L266.194 18.1298C266.182 18.1273 265.608 19.2296 265.608 19.2296L265.647 19.2562L266.798 18.1029L269.975 15.5338L271.767 16.187L268.947 23.9255L266.98 23.209L268.107 20.1153L268.107 20.1163Z" fill="#231F20"/>
<path d="M275.141 19.6627C274.559 19.426 274.102 19.5917 273.888 20.1198C273.686 20.6162 273.819 21.123 274.444 21.3774L275.578 21.837L276.274 20.1223L275.141 19.6627ZM273.918 25.9234L274.959 23.3569L274.646 23.2296L271.557 24.9636L269.152 23.987L272.601 22.1744C271.861 21.5212 271.412 20.6466 272.008 19.1815C272.704 17.5925 274.15 17.1253 275.917 17.8418L278.959 19.0782L275.858 26.7116L273.918 25.9234Z" fill="#231F20"/>
<path d="M178.499 170.723L177.931 170.387L99.3247 123.931L90.947 118.509C78.5642 110.885 78.2731 101.521 77.9633 91.6072L77.9623 91.5486C77.9189 90.1738 77.8743 88.7489 77.8008 87.2598L77.7117 85.807L77.4301 76.2442H0V74.0062H79.6019L79.9453 85.705L80.0344 87.1359C80.1094 88.6599 80.1554 90.0921 80.1984 91.477L80.2 91.5356C80.5143 101.634 80.7626 109.611 92.1409 116.617L100.522 122.04L178.499 168.124L256.294 122.153L264.838 116.629C276.236 109.61 276.484 101.634 276.799 91.5369L276.801 91.4795C276.844 90.0946 276.888 88.6612 276.963 87.1514L277.046 85.872L277.398 74.0062H357V76.2442H279.569L279.281 85.9952L279.198 87.2772C279.125 88.7502 279.081 90.1744 279.037 91.5508L279.036 91.6069C278.727 101.52 278.436 110.883 266.033 118.521L257.453 124.068L178.499 170.723V170.723Z" fill="#231F20"/>
<path d="M178.499 164.584L177.931 164.248L102.196 119.494L93.7653 114.038C83.759 107.899 83.554 101.351 83.2465 91.4415C83.2018 90.0106 83.1559 88.5326 83.0782 86.9579L82.9918 85.6176L82.5629 70.9585H0V68.722H84.7359L85.2276 85.5311L85.3115 86.8308C85.3917 88.4423 85.4376 89.9305 85.4832 91.3715C85.7797 100.882 85.9581 106.622 94.9583 112.145L103.393 117.604L178.499 161.985L253.606 117.604L262.017 112.159C271.041 106.622 271.22 100.882 271.515 91.3715C271.562 89.9305 271.608 88.441 271.687 86.8486L271.772 85.5311L272.264 68.722H357V70.9585H274.436L274.005 85.6553L273.92 86.9743C273.844 88.5326 273.796 90.0106 273.752 91.4415C273.444 101.351 273.24 107.899 263.211 114.052L254.763 119.518L178.499 164.584H178.499Z" fill="#3DAE2B"/>
</svg>