<svg width="77" height="59" viewBox="0 0 77 59" fill="none" xmlns="http://www.w3.org/2000/svg"><path d="M27.05 51.559l4.384 2.517V24.492h7.223V21.49H27.06l-.01 30.07zm32.57-20.73l-2.997 1.184v-7.555h2.997v6.37zm-6.006-9.35l-1.375 1.401v27.957l4.384-2.532V35.241l3.244-1.282 4.137-1.365V22.95l-1.47-1.47h-8.92zM29.44 7.393l-.078-.161c2.195-1.615 2.348-3.122 2.35-3.137l.18-.009c.481 2.503-2.423 3.3-2.452 3.307zM54.81 9.39c.607-.386 2.495-1.905 1.239-5.256l.156-.089c.043.054 1.063 1.343.784 2.89-.182 1.015-.884 1.893-2.083 2.609a2.297 2.297 0 01-.176.102l-.085-.161c.056-.032.111-.063.164-.095zm14.007-1.82c.034-.098.289-.209.6-.209.144 0 .295.022.45.065.141.04.324.163.516.294.17.116.382.259.465.259l.096-.002-.003.096c-.005.146-.112.42-.48.42-.363 0-.905-.274-1.612-.815l-.053-.046.021-.061zM46.403 5.858c-3.015 2.538-5.39 7.125-5.412 7.165l-.14.333c-.729 1.59-1.636 3.794-1.846 5.301l1.824 1.743h3.11c-.17-.322-.434-.684-.794-.83l-.24-.095.247-.076c.006-.001.044-.012.107-.012.227 0 .687.132 1.21 1.013h.74c-.067-.315-.467-1.375-2.854-2.124l-.127-.04.084-.104c.045-.056 4.563-5.572 10.502-7.98l.079.162c-.034.02-3.344 1.91-5.015 3.445.725-.006 3.164-.051 5.353-.39l.036-.006.03.02c.079.055 8.421 5.445 14.61 6.976h4.422l-.002-.001h1.038c-.037-.305-.451-1.758-3.65-2.1-.975-.103-2.337-.309-3.334-.823-2.097-1.297-5.523-3.66-7.367-6.247l-.07-.118.139-.027.034-.005c.17-.002.37-.03.612-.082.175-.014.356-.022.536-.022.944 0 2.395.205 3.944 1.182l.034.021.007.039c.005.025.5 2.495 3.123 3.202l1.282-.788-.955-.764.562-.398-.907.124-.043-.035c-.36-.133-.656-.618-.664-1.095-.005-.296.098-.835.86-1.12.63-.157 1.01-.204 1.674-.257l.056-.004.029.048c.255.423.698.81 1.246 1.091l.145.074-1.112.671 2.1-.393.132-.038c.317-.093.71-.316 1.167-.665.26-.198.488-.4.678-.599-.054-.231-.224-.807-.611-1.087l-.16-.117.195-.046s.016-.003.046-.003c.133 0 .482.068.972.68.062-.11.09-.188.101-.224-.097-.203-.736-1.455-2.027-2.173l-.022-.011-1.154-1.97c-.22-.17-3.117-2.386-6.072-2.79l.937.938-.128.128c-.989-.99-3.164-1.349-3.571-1.409-.19.476.14 1.037.283 1.281l.046.08.02.036c.094.178.252.474.543.766l-.105.145-.337-.167-.011-.014c-.695-.764-1.026-1.436-.985-2 .031-.416.263-.61.273-.618l.018-.015.025-.004c.114-.02.236-.029.362-.029.114 0 .228.008.34.022C58.721.935 54.781.17 53.458.08 52.71.029 52.267 0 51.865 0c-.703 0-1.245.092-2.695.34-.357.06-.767.13-1.258.211-.104.005-10.46.49-17.186 2.237l-.021.006-1.927-.42c-.181.045-1.625.41-3.305 1.337l-.015.008-.017.003c-.109.015-11.037 1.595-21.764 9.654l-.06.044C2.906 13.955.74 15.58.16 16.98c-.362.875-.099 1.68.67 2.05.287.138.63.208 1.023.208 1.277 0 2.713-.734 3.34-1.707a.388.388 0 00.053-.294.388.388 0 00-.381-.308.388.388 0 00-.328.18c-.545.845-1.79 1.351-2.679 1.351-.272 0-.504-.045-.688-.134-.101-.048-.59-.331-.265-1.107.03-.073.34-.748 1.773-1.811 2.42-1.794 7.403-4.716 17.403-8.44l.077.164-2.755 1.586c-.184.164-3.656 3.212-7.639 4.03-.235.139-3.78 2.294-4.124 6.316l1.817 1.252H10.3c-.219-.383-.47-.634-.749-.746l-.24-.096.247-.075c.007-.002.044-.013.105-.013.219 0 .657.123 1.16.93h.783c-.023-.362-.264-1.73-2.567-2.333l-.064-.016-.004-.065c-.002-.025-.143-2.474 2.545-2.943l.014-.002.014.002c.007 0 .653.092 1.725.092 3.07 0 9.042-.716 14.528-5.512l.136.119c-.039.056-.84 1.234-1.722 1.917.904-.153 3.239-.484 6.876-.565h.022l.02.01c1.236.606 3.16 1.16 4.556 1.518l-.036.178-1.149-.174-3.547-.877-1.814.04c-.14.293-.9 1.69-3.381 3.573-.071.113-.556.894-.795 1.496.421.3 3.183 2.209 7.063 3.542h4.243c-.037-.305-.345-1.363-2.805-1.912-.156-.006-2.132-.118-4.27-1.69l-.154-.114.184-.049c.052-.013 5.157-1.36 7.867-3.635l.035-.03.044.011c.517.117.954.21 1.26.268 1.509-3.7 5.489-7.767 5.53-7.808l.03-.032 3.749.414-.012.18-3.325-.061zm.47 15.667l-2.794 6.053-.173-.038v-6.06h-4.384v36.758l4.384-2.562v-20.33l2.793-6.272.175.036v24.866l4.383-2.543V21.48h-4.383v.043zM21.572 28.96H18.65v-4.502h2.921v4.502zm-5.903-7.486l-1.37 1.379-.033 21.245 4.385 2.562v-14.7h2.921v16.396l4.384 2.532.02-27.964-1.429-1.437-8.878-.014zM5.84 29.058l2.867 1.13v7.481L5.84 36.038v-6.98zm-4.384 7.605l11.635 6.784V29.122L5.84 26.3v-1.818h7.25V21.48l-11.635.007v15.176zm70.92-7.703h-2.808v-4.502h2.808v4.502zm3.029-7.474l-8.877-.006-1.413 1.406v20.479l4.453-2.564v-8.84h2.808v7.25l4.45-2.534v-13.76l-1.421-1.43z" fill="#231F20"/></svg> 5.24633 17.2372C5.22422 17.1347 5.16408 17.048 5.07634 16.9912C5.01303 16.9504 4.94012 16.9287 4.86501 16.9287C4.73154 16.9287 4.60893 16.9954 4.5367 17.1082C3.99158 17.9545 2.74671 18.4605 1.85817 18.4605C1.58575 18.4605 1.35383 18.4154 1.1701 18.3265C1.06863 18.2779 0.580216 17.9949 0.904682 17.2191C0.935028 17.1456 1.24521 16.4713 2.67833 15.408C5.09748 13.6136 10.0808 10.6923 20.0807 6.96813L20.158 7.13208L17.4033 8.71803C17.2186 8.88239 13.747 11.9301 9.76414 12.7489C9.52906 12.8869 5.98478 15.0418 5.64041 19.0639L7.4569 20.3159H10.2998C10.0813 19.9329 9.83018 19.6819 9.55103 19.5704L9.31005 19.4739L9.55831 19.3988C9.5649 19.3973 9.60197 19.3861 9.66308 19.3861C9.88154 19.3861 10.3197 19.5086 10.8231 20.3159H11.6062C11.5828 19.9539 11.3423 18.5855 9.03858 17.983L8.97515 17.967L8.97075 17.9018C8.96897 17.8771 8.82836 15.428 11.5157 14.9591L11.5301 14.9569L11.5445 14.9591C11.5511 14.9595 12.1966 15.0512 13.2689 15.0512C16.3397 15.0512 22.3108 14.335 27.7968 9.5386L27.9326 9.65778C27.894 9.71408 27.0928 10.8922 26.2109 11.5748C27.1153 11.4224 29.45 11.0914 33.087 11.0103L33.1091 11.0099L33.1296 11.0191C34.365 11.6257 36.2892 12.1802 37.6853 12.5382L37.6489 12.7158L36.5 12.5416L32.9535 11.6653L31.1392 11.7055C30.999 11.9985 30.2392 13.3958 27.7578 15.2785C27.6867 15.3911 27.2016 16.172 26.9626 16.7739C27.3842 17.0745 30.1465 18.9827 34.0259 20.3159H38.2688C38.2318 20.0113 37.9239 18.9531 35.464 18.4045C35.3084 18.3979 33.3318 18.286 31.194 16.7132L31.0396 16.5996L31.2244 16.5515C31.2757 16.5378 36.381 15.1918 39.0909 12.9162L39.1257 12.8869L39.1699 12.8974C39.6869 13.0144 40.1245 13.1061 40.4301 13.165C41.9388 9.46568 45.919 5.39839 45.9598 5.35692L45.9901 5.32548L49.7386 5.73878L49.7271 5.91976L46.4019 5.85797L46.4025 5.85742ZM46.8736 21.5238L44.0793 27.5772L43.906 27.5391V21.4796H39.5224V58.2374L43.906 55.6748V35.3461L46.6987 29.0741L46.8736 29.1105V53.9757L51.2567 51.4333V21.4795H46.8736V21.5235V21.5238ZM21.571 28.9602H18.6497V24.4584H21.571V28.9602ZM15.6682 21.4742L14.2976 22.8526L14.2655 44.0978L18.6497 46.6599V31.9612H21.571V48.3567L25.9551 50.889L25.9754 22.9255L24.5464 21.488L15.6682 21.4742ZM5.84006 29.0583L8.70671 30.1872V37.6693L5.84006 36.038V29.0583ZM1.4564 36.6628L13.0908 43.4473V29.1218L5.84006 26.3005V24.4816H13.0913V21.4797L1.4564 21.4869V36.6628ZM72.3757 28.96H69.5676V24.4583H72.3757V28.96ZM75.4047 21.4862L66.5282 21.4803L65.1155 22.8862V43.3645L69.5676 40.8008V31.9612H72.3757V39.211L76.8267 36.6772V22.9177L75.4047 21.4863V21.4862Z" fill="#231F20"/>
</svg>
