<svg width="357" height="171" viewBox="0 0 357 171" fill="none" xmlns="http://www.w3.org/2000/svg"><path d="M152.542 137.709l10.113 5.808v-68.25h16.664V68.34h-26.757l-.02 69.368zm75.138-47.824l-6.916 2.733v-17.43h6.916v14.697zm-13.857-21.568l-3.173 3.231v64.495l10.114-5.84v-30.138l7.485-2.957 9.545-3.15V71.707l-3.39-3.389h-20.581zm-55.769-32.5l-.178-.372c5.062-3.726 5.416-7.201 5.42-7.237l.415-.02c1.11 5.774-5.589 7.61-5.657 7.629zm58.527 4.61c1.403-.89 5.759-4.395 2.86-12.126l.359-.205c.101.123 2.452 3.099 1.811 6.665-.422 2.344-2.041 4.37-4.806 6.02-.25.158-.406.236-.406.236l-.196-.372c.129-.074.256-.146.377-.219h.001zm32.316-4.198c.077-.229.666-.484 1.385-.484.331 0 .679.05 1.036.15.327.093.749.377 1.193.68.392.265.879.595 1.07.595l.224-.004-.008.221c-.011.337-.259.97-1.108.97-.836 0-2.087-.632-3.718-1.882l-.122-.104.048-.142zm-51.71-3.953c-6.955 5.854-12.435 16.436-12.484 16.53l-.324.767c-1.681 3.669-3.773 8.753-4.258 12.23l4.208 4.02h7.176c-.393-.741-1.002-1.579-1.834-1.912l-.552-.221.568-.175c.016-.003.103-.029.247-.029.525 0 1.585.304 2.792 2.337h1.707c-.154-.725-1.077-3.171-6.583-4.9l-.294-.093.195-.239c.103-.128 10.526-12.854 24.227-18.411l.182.376c-.078.046-7.715 4.407-11.568 7.948 1.671-.014 7.298-.12 12.349-.902l.083-.012.068.047c.183.126 19.428 12.56 33.706 16.09h12.591c-.086-.703-1.04-4.056-8.421-4.843-2.25-.24-5.39-.714-7.691-1.9-4.837-2.992-12.74-8.445-16.996-14.413l-.159-.27.318-.064.079-.012c.392-.005.856-.069 1.412-.19a16.29 16.29 0 011.237-.049c2.177 0 5.524.472 9.098 2.726l.078.05.016.088c.012.058 1.155 5.758 7.205 7.388l2.959-1.818-2.204-1.762 1.298-.919-2.095.285-.098-.078c-.83-.307-1.515-1.427-1.532-2.527-.012-.684.226-1.926 1.983-2.583 1.455-.364 2.329-.472 3.862-.593l.13-.01.066.11c.59.977 1.611 1.869 2.875 2.517l.334.172-2.564 1.548 4.843-.908.307-.088c.73-.213 1.635-.729 2.691-1.532a13.556 13.556 0 001.565-1.383c-.125-.534-.517-1.862-1.41-2.508l-.368-.271.449-.104s.037-.008.106-.008c.306 0 1.113.158 2.242 1.568a2.72 2.72 0 00.234-.516c-.224-.469-1.699-3.356-4.678-5.012l-.051-.027-2.66-4.543c-.507-.395-7.191-5.505-14.01-6.44l2.163 2.165-.296.296c-2.282-2.282-7.298-3.112-8.239-3.25-.437 1.098.322 2.391.654 2.955.045.076.08.138.106.185l.044.084c.218.408.582 1.093 1.254 1.765l-.243.336-.775-.386-.027-.031c-1.602-1.763-2.366-3.315-2.271-4.613.072-.962.606-1.408.628-1.427l.043-.036.056-.01c.264-.043.545-.065.835-.065.264 0 .527.018.786.05-8.951-3.905-18.041-5.668-21.093-5.877-1.726-.118-2.749-.186-3.674-.186-1.622 0-2.873.213-6.219.784-.822.14-1.768.301-2.902.488-.239.011-24.132 1.132-39.648 5.16l-.049.014-4.444-.968c-.419.102-3.75.945-7.625 3.084l-.036.018-.038.006c-.251.035-25.463 3.68-50.21 22.272l-.137.103c-1.642 1.234-6.639 4.983-7.976 8.214-.835 2.017-.228 3.874 1.547 4.728.661.318 1.453.48 2.358.48 2.947 0 6.261-1.694 7.707-3.94a.893.893 0 00.122-.677.896.896 0 00-.88-.711.893.893 0 00-.757.414c-1.258 1.952-4.13 3.12-6.18 3.12-.628 0-1.163-.105-1.587-.31-.234-.112-1.36-.765-.612-2.554.07-.17.785-1.725 4.092-4.179 5.581-4.14 17.077-10.879 40.147-19.47l.178.378-6.355 3.659c-.426.379-8.435 7.41-17.623 9.299-.543.318-8.719 5.29-9.514 14.569l4.191 2.888h6.558c-.504-.884-1.083-1.463-1.727-1.72l-.556-.223.573-.173c.015-.003.1-.029.241-.029.504 0 1.515.283 2.676 2.145h1.807c-.054-.835-.609-3.992-5.923-5.382l-.147-.037-.01-.15c-.004-.057-.328-5.707 5.871-6.79l.034-.004.033.005c.015 0 1.504.212 3.978.212a51 51 0 0033.516-12.717l.313.275c-.089.13-1.937 2.848-3.972 4.422 2.087-.351 7.473-1.115 15.863-1.302h.051l.047.02c2.85 1.4 7.29 2.679 10.51 3.505l-.084.41-2.65-.402-8.182-2.022-4.185.093c-.324.676-2.077 3.9-7.801 8.243-.164.26-1.284 2.06-1.835 3.45.973.693 7.345 5.095 16.295 8.17h9.789c-.086-.702-.796-3.143-6.471-4.409-.359-.015-4.919-.273-9.851-3.901l-.356-.263.426-.11c.119-.032 11.896-3.137 18.148-8.387l.08-.068.102.024a97.43 97.43 0 002.908.618c3.48-8.534 12.662-17.918 12.757-18.013l.07-.073 8.647.954-.026.417-7.671-.142.001-.002zm1.087 36.143l-6.447 13.965-.399-.088v-13.98h-10.114v84.801l10.114-5.912v-46.898l6.442-14.47.404.084v57.364l10.112-5.865V68.316h-10.112v.102zm-58.373 17.155h-6.74V75.19h6.74v10.385zm-13.618-17.27l-3.162 3.18-.074 49.013 10.114 5.91v-33.91h6.74v37.825l10.114 5.842.047-64.512-3.297-3.316-20.482-.032zM103.61 85.801l6.613 2.604v17.261l-6.613-3.763V85.801zm-10.113 17.543l26.84 15.652V85.947l-16.727-6.509v-4.196h16.728v-6.925l-26.841.016v35.011zm163.61-17.77h-6.478V75.188h6.478v10.386zm6.988-17.242l-20.478-.014-3.259 3.244v47.243l10.271-5.915V92.498h6.478v16.725l10.268-5.846V71.634l-3.28-3.302zm-178.371-45.3c-.159.317-.609.753-1.21 1.002-1.345.556-2.968.192-3.682-1.54l-1.19-2.884 1.937-.797 1.19 2.882c.203.495.62.65 1.151.444.452-.187.899-.51 1.066-.868l-1.352-3.306 1.936-.8 3.142 7.617-1.936.8-1.052-2.55zm6.414-3.278l-1.372-2.06-.055.02.272 2.469 1.156-.43zm4.283 2.146l-2.093.777-1.077-1.363-2.061.764.094 1.727-2.093.777-.172-8.722 1.777-.66 5.625 6.7zm5.399-3.631c-.226 1.488-1.243 2.37-2.225 2.699-1.532.514-3.377.14-3.974-1.636l-.904-2.691c-.592-1.764.649-3.188 2.215-3.714.96-.322 2.254-.304 3.349.875l-1.391 1.193c-.856-.793-2.524.011-2.198.982l.905 2.692c.314.938 2.168.61 2.234-.617l1.989.217zm3.038-5.664l1.818 6.004-2.015.61-1.818-6.004-2.094.635-.573-1.893 6.202-1.879.574 1.893-2.094.634zm6.662 4.619l-2.023.543-2.138-7.955 2.023-.544.81 3.01 2.291-.614-.808-3.01 2.023-.544 2.136 7.955-2.023.544-.806-3-2.291.616.806 2.999zm8.334-5.717l-1.104-2.214-.057.013-.039 2.484 1.2-.283zm3.983 2.663l-2.174.51-.899-1.486-2.14.503-.121 1.724-2.175.511.917-8.676 1.845-.434 4.746 7.348h.001z" fill="#231F20"/><path d="M125.913 7.369c-.615.126-.905.515-.792 1.074.107.525.498.872 1.159.74l1.197-.243-.368-1.813-1.196.242zm2.439 5.893l-.55-2.715-.33.068-1.618 3.152-2.542.515 1.871-3.42c-.976-.133-1.833-.613-2.146-2.164-.299-1.708.648-2.896 2.518-3.275l3.215-.65 1.634 8.073-2.052.415zm8.859-4.342c.091.599.803.783 1.458.681.656-.1 1.264-.5 1.174-1.087l-.43-2.782c-.097-.632-.82-.815-1.487-.712-.643.1-1.237.52-1.144 1.118l.429 2.782zm-2.488-2.464c-.29-1.874 1.246-3.053 2.937-3.314 1.691-.261 3.524.409 3.812 2.272l.43 2.783c.288 1.862-1.248 3.053-2.938 3.313-1.689.26-3.524-.41-3.812-2.272l-.429-2.783zm11.852-4.426l2.402-.301-1.771 4.385 2.798 3.789-2.401.301-1.781-2.603-1.048 2.958-2.414.303 1.786-4.363-2.812-3.81 2.413-.303 1.748 2.618 1.08-2.974zm6.851 3.264c1.251-.11 1.051-2.16-.198-2.026l-1.205.117.198 2.026 1.205-.117zm-3.664-3.641l3.276-.32c2.006-.195 3.141 1.155 3.283 2.603.144 1.459-.724 3.005-2.704 3.197l-1.216.12.234 2.397-2.072.201-.801-8.198zm10.664 3.818l-.743-2.36-.058.003-.429 2.446 1.23-.089zm3.513 3.257l-2.228.161-.653-1.608-2.193.158-.391 1.685-2.228.16 2.271-8.422 1.891-.137 3.531 8.003zm2.585-.115l-2.094.093-.364-8.227 2.092-.093.138 3.114 2.373-.105-.14-3.115 2.092-.092.364 8.228-2.091.093-.138-3.104-2.37.106.138 3.102zm7.794-.266l-2.094.03L172.1.143l2.092-.032.048 3.118 2.375-.037-.049-3.117 2.095-.03.125 8.234-2.095.033-.047-3.107-2.373.037.047 3.106zm9.471-3.53l-.542-2.414-.059-.001-.631 2.4 1.232.015zm3.23 3.537l-2.233-.024-.517-1.657-2.198-.026-.531 1.646-2.233-.024 2.966-8.204 1.896.02 2.85 8.27z" fill="#231F20"/><path d="M190.645 2.235c-.628-.025-1.001.287-1.023.857-.02.535.276.967.951.991l1.221.047.073-1.848-1.222-.047zm.98 6.302l.106-2.767-.337-.012-2.316 2.681-2.594-.1 2.628-2.88c-.918-.361-1.637-1.028-1.576-2.61.112-1.73 1.313-2.663 3.22-2.59l3.278.127-.318 8.233-2.092-.081h.001zm9.634-2.14c-.05.603.599.948 1.259 1.001.662.055 1.347-.192 1.395-.783l.232-2.805c.052-.638-.609-.984-1.281-1.04-.649-.054-1.325.219-1.374.822l-.231 2.805zm-1.844-2.977c.155-1.888 1.923-2.677 3.628-2.537 1.703.14 3.331 1.22 3.176 3.097l-.231 2.806c-.154 1.877-1.923 2.677-3.628 2.537-1.704-.141-3.33-1.22-3.176-3.097l.231-2.806zm11.135 2.304c1.247.15 1.475-1.897.224-2.024l-1.203-.132-.223 2.024 1.202.132zm-2.835-4.317l3.273.363c2 .22 2.834 1.776 2.673 3.22-.16 1.457-1.326 2.791-3.302 2.573l-1.214-.133-.265 2.393-2.069-.229.905-8.186h-.001zM220.1 2.93l-.266 1.959-3.008-.408-.841 6.201-2.075-.281 1.105-8.162 5.085.69zm2.832 5.238l-.186-2.467-.058-.01-.973 2.285 1.217.192zm2.682 3.97l-2.206-.35-.27-1.715-2.173-.343-.764 1.55-2.205-.347 4.123-7.688 1.874.296 1.621 8.596zm2.533.478l-2.057-.388 1.529-8.094 2.057.388-.578 3.065 2.332.44.578-3.064 2.057.39-1.529 8.092-2.057-.387.577-3.054-2.332-.44-.577 3.052zm10.778-1.144c.013.003.541-1.464.541-1.464l-.055-.025-1.109 1.399-2.635 2.74-1.917-.427 1.783-8.04 2.045.454-.808 3.645c-.013-.003-.439 1.166-.439 1.166l.043.021.99-1.293 2.813-2.962 1.863.414-1.784 8.04-2.046-.455.714-3.213h.001zm8.63 2.968c-.4 1.579-1.821 2.202-3.84 1.69-1.24-.315-2.174-1.176-2.522-2.308l1.541-.679c.322.623.822 1.062 1.318 1.188.812.206 1.357.044 1.504-.53.146-.575-.15-1.012-.806-1.177l-1.184-.3.353-1.388 1.139.29c.597.151 1.036-.061 1.17-.592.114-.452-.146-.841-.823-1.013-.586-.149-1.291.069-1.597.193l-.797-1.306c.828-.619 1.809-.837 2.971-.542 1.77.45 2.534 1.557 2.165 3.01-.133.52-.609 1.167-1.258 1.316.728.628.846 1.438.666 2.148zm4.656.236l.112-2.472-.056-.016-1.242 2.15 1.186.339zm2.185 4.265l-2.151-.613-.061-1.736-2.114-.603-.946 1.449-2.147-.613 5.022-7.134 1.824.52.573 8.73zm2.985-7.693l1.993.644-1.921 5.956 2.135.69 1.923-5.957 1.994.644-1.924 5.955.952.31-1.115 3.453-1.883-.609.509-1.57-5.192-1.678 2.529-7.838zm10.726 8.868c.012.004.727-1.38.727-1.38l-.051-.032-1.282 1.24-2.97 2.373-1.845-.673 2.819-7.738 1.967.717-1.278 3.507c-.012-.003-.586 1.1-.586 1.1l.039.026 1.151-1.153 3.177-2.57 1.792.654-2.82 7.738-1.967-.716 1.127-3.094v.001zm7.034-.453c-.582-.237-1.039-.071-1.253.457-.202.496-.069 1.003.556 1.257l1.134.46.696-1.715-1.133-.46zm-1.223 6.26l1.041-2.566-.313-.127-3.089 1.734-2.405-.977 3.449-1.813c-.74-.653-1.189-1.527-.593-2.992.696-1.59 2.142-2.057 3.909-1.34l3.042 1.236-3.101 7.634-1.94-.789zm-95.419 144.8l-.568-.336-78.606-46.456-8.378-5.422c-12.383-7.624-12.674-16.988-12.984-26.902v-.058c-.044-1.375-.089-2.8-.162-4.29l-.09-1.452-.28-9.563H0v-2.238h79.602l.343 11.699.09 1.43c.074 1.525.12 2.957.163 4.342l.002.059c.314 10.098.563 18.075 11.94 25.081l8.382 5.423 77.977 46.084 77.795-45.971 8.544-5.524c11.398-7.019 11.646-14.995 11.961-25.092l.002-.058c.043-1.384.087-2.818.162-4.328l.083-1.279.352-11.866H357v2.238h-77.431l-.288 9.751-.083 1.282c-.073 1.473-.117 2.897-.161 4.274l-.001.056c-.309 9.913-.6 19.276-13.003 26.914l-8.58 5.547-78.954 46.655z" fill="#231F20"/><path d="M178.499 164.584l-.568-.336-75.735-44.754-8.43-5.456c-10.007-6.139-10.212-12.687-10.52-22.596-.044-1.431-.09-2.91-.168-4.484l-.086-1.34-.43-14.66H0v-2.236h84.736l.492 16.81.084 1.299c.08 1.611.126 3.1.171 4.54.297 9.511.475 15.251 9.475 20.774l8.435 5.459 75.106 44.381 75.107-44.381 8.411-5.445c9.024-5.537 9.203-11.277 9.498-20.788.047-1.44.093-2.93.172-4.522l.085-1.318.492-16.809H357v2.237h-82.564l-.431 14.696-.085 1.32a244.888 244.888 0 00-.168 4.467c-.308 9.909-.512 16.457-10.541 22.61l-8.448 5.466-76.264 45.066z" fill="#3DAE2B"/></svg>L184.786 8.33036L184.269 6.67267L182.071 6.64733L181.54 8.2933L179.307 8.26922L182.273 0.0647278L184.169 0.0850014L187.019 8.35475V8.35443Z" fill="#231F20"/>
<path d="M190.645 2.23462C190.017 2.21023 189.644 2.52226 189.622 3.09245C189.602 3.62717 189.898 4.05894 190.573 4.08301L191.794 4.12989L191.867 2.28151L190.645 2.23462H190.645ZM191.625 8.5372L191.731 5.76953L191.394 5.75812L189.078 8.43931L186.484 8.33858L189.112 5.45908C188.194 5.09764 187.475 4.43051 187.536 2.84822C187.648 1.11831 188.849 0.186035 190.756 0.258576L194.034 0.38592L193.716 8.61861L191.624 8.53751L191.625 8.5372Z" fill="#231F20"/>
<path d="M201.259 6.39673C201.209 7.00019 201.858 7.34516 202.518 7.39837C203.18 7.45318 203.865 7.20609 203.913 6.6153L204.145 3.80962C204.197 3.17195 203.536 2.82572 202.864 2.76965C202.215 2.71611 201.539 2.98854 201.49 3.592L201.259 6.39673ZM199.415 3.4203C199.57 1.53232 201.338 0.743231 203.043 0.883246C204.746 1.02326 206.374 2.10252 206.219 3.98036L205.988 6.78605C205.834 8.66263 204.065 9.46312 202.36 9.3231C200.656 9.18151 199.03 8.10352 199.184 6.22599L199.415 3.4203Z" fill="#231F20"/>
<path d="M210.55 5.72422C211.797 5.8731 212.025 3.82705 210.774 3.70002L209.571 3.56761L209.348 5.5918L210.55 5.72422H210.55ZM207.715 1.4072L210.988 1.77022C212.988 1.99038 213.822 3.54607 213.661 4.99088C213.501 6.44742 212.335 7.78136 210.359 7.56342L209.145 7.43005L208.88 9.8233L206.811 9.59427L207.716 1.40751L207.715 1.4072Z" fill="#231F20"/>
<path d="M220.1 2.92932L219.834 4.88889L216.826 4.4812L215.985 10.6821L213.91 10.4008L215.015 2.23938L220.1 2.92932Z" fill="#231F20"/>
<path d="M222.932 8.16815L222.746 5.7011L222.688 5.69096L221.715 7.97587L222.932 8.16815ZM225.614 12.1374L223.408 11.7889L223.138 10.0726L220.965 9.73017L220.201 11.2808L217.996 10.9333L222.119 3.24545L223.993 3.54069L225.614 12.1374Z" fill="#231F20"/>
<path d="M228.147 12.616L226.09 12.228L227.619 4.13434L229.676 4.52239L229.098 7.58656L231.43 8.0272L232.008 4.96271L234.065 5.35234L232.536 13.445L230.479 13.0579L231.056 10.0039L228.724 9.56483L228.147 12.616Z" fill="#231F20"/>
<path d="M238.925 11.4724C238.938 11.475 239.466 10.0083 239.466 10.0083L239.411 9.98263L238.302 11.3818L235.667 14.1213L233.75 13.6949L235.533 5.65579L237.578 6.1091L236.77 9.7536C236.757 9.75107 236.331 10.92 236.331 10.92L236.374 10.9415L237.364 9.64812L240.177 6.68563L242.04 7.09966L240.256 15.1397L238.21 14.6855L238.924 11.4724H238.925Z" fill="#231F20"/>
<path d="M247.555 14.44C247.155 16.0188 245.734 16.6425 243.715 16.1306C242.475 15.8148 241.541 14.9544 241.193 13.8216L242.734 13.1431C243.056 13.7665 243.556 14.2046 244.052 14.3307C244.864 14.5372 245.409 14.3754 245.556 13.8014C245.702 13.2258 245.406 12.7893 244.75 12.6236L243.566 12.3233L243.919 10.9358L245.058 11.226C245.655 11.3774 246.094 11.1648 246.228 10.6339C246.342 10.1822 246.082 9.79289 245.405 9.62057C244.819 9.472 244.114 9.68962 243.808 9.81443L243.011 8.50805C243.839 7.88939 244.82 7.67145 245.982 7.96573C247.752 8.4165 248.516 9.52268 248.147 10.9764C248.014 11.4959 247.538 12.1427 246.889 12.2916C247.617 12.9201 247.735 13.7301 247.555 14.4403V14.44Z" fill="#231F20"/>
<path d="M252.211 14.6763L252.323 12.2042L252.267 12.1877L251.025 14.338L252.211 14.6766V14.6763ZM254.396 18.941L252.245 18.3275L252.184 16.5922L250.07 15.9887L249.124 17.4376L246.977 16.8253L251.999 9.69119L253.823 10.2104L254.396 18.941Z" fill="#231F20"/>
<path d="M257.381 11.2475L259.374 11.8915L257.453 17.8482L259.588 18.5381L261.511 12.5815L263.505 13.2245L261.581 19.1796L262.533 19.4891L261.418 22.9429L259.535 22.3344L260.044 20.7632L254.852 19.0855L257.381 11.2475Z" fill="#231F20"/>
<path d="M268.107 20.1163C268.119 20.1204 268.834 18.7352 268.834 18.7352L268.783 18.7044L267.501 19.9443L264.531 22.3173L262.686 21.6438L265.505 13.9062L267.472 14.6228L266.194 18.1298C266.182 18.1273 265.608 19.2296 265.608 19.2296L265.647 19.2562L266.798 18.1029L269.975 15.5338L271.767 16.187L268.947 23.9255L266.98 23.209L268.107 20.1153L268.107 20.1163Z" fill="#231F20"/>
<path d="M275.141 19.6627C274.559 19.426 274.102 19.5917 273.888 20.1198C273.686 20.6162 273.819 21.123 274.444 21.3774L275.578 21.837L276.274 20.1223L275.141 19.6627ZM273.918 25.9234L274.959 23.3569L274.646 23.2296L271.557 24.9636L269.152 23.987L272.601 22.1744C271.861 21.5212 271.412 20.6466 272.008 19.1815C272.704 17.5925 274.15 17.1253 275.917 17.8418L278.959 19.0782L275.858 26.7116L273.918 25.9234Z" fill="#231F20"/>
<path d="M178.499 170.723L177.931 170.387L99.3247 123.931L90.947 118.509C78.5642 110.885 78.2731 101.521 77.9633 91.6072L77.9623 91.5486C77.9189 90.1738 77.8743 88.7489 77.8008 87.2598L77.7117 85.807L77.4301 76.2442H0V74.0062H79.6019L79.9453 85.705L80.0344 87.1359C80.1094 88.6599 80.1554 90.0921 80.1984 91.477L80.2 91.5356C80.5143 101.634 80.7626 109.611 92.1409 116.617L100.522 122.04L178.499 168.124L256.294 122.153L264.838 116.629C276.236 109.61 276.484 101.634 276.799 91.5369L276.801 91.4795C276.844 90.0946 276.888 88.6612 276.963 87.1514L277.046 85.872L277.398 74.0062H357V76.2442H279.569L279.281 85.9952L279.198 87.2772C279.125 88.7502 279.081 90.1744 279.037 91.5508L279.036 91.6069C278.727 101.52 278.436 110.883 266.033 118.521L257.453 124.068L178.499 170.723V170.723Z" fill="#231F20"/>
<path d="M178.499 164.584L177.931 164.248L102.196 119.494L93.7653 114.038C83.759 107.899 83.554 101.351 83.2465 91.4415C83.2018 90.0106 83.1559 88.5326 83.0782 86.9579L82.9918 85.6176L82.5629 70.9585H0V68.722H84.7359L85.2276 85.5311L85.3115 86.8308C85.3917 88.4423 85.4376 89.9305 85.4832 91.3715C85.7797 100.882 85.9581 106.622 94.9583 112.145L103.393 117.604L178.499 161.985L253.606 117.604L262.017 112.159C271.041 106.622 271.22 100.882 271.515 91.3715C271.562 89.9305 271.608 88.441 271.687 86.8486L271.772 85.5311L272.264 68.722H357V70.9585H274.436L274.005 85.6553L273.92 86.9743C273.844 88.5326 273.796 90.0106 273.752 91.4415C273.444 101.351 273.24 107.899 263.211 114.052L254.763 119.518L178.499 164.584H178.499Z" fill="#3DAE2B"/>
</svg>
